<?xml version="1.0" standalone="no"?>
<!DOCTYPE svg PUBLIC "-//W3C//DTD SVG 20010904//EN"
 "http://www.w3.org/TR/2001/REC-SVG-20010904/DTD/svg10.dtd">
<svg version="1.0" xmlns="http://www.w3.org/2000/svg"
 width="700.000000pt" height="700.000000pt" viewBox="0 0 700.000000 700.000000"
 preserveAspectRatio="xMidYMid meet">
<metadata>
Created by potrace 1.11, written by Peter Selinger 2001-2013
</metadata>
<g transform="translate(0.000000,700.000000) scale(0.100000,-0.100000)"
fill="#000000" stroke="none">
<path d="M3151 5951 c-10 -10 -20 -24 -22 -30 -3 -7 -72 -22 -169 -36 -91 -14
-177 -27 -191 -30 -17 -4 -30 0 -39 10 -22 26 -68 13 -82 -24 -3 -8 -129 -45
-303 -88 -69 -17 -74 -18 -96 -9 -11 5 -25 -1 -40 -17 -13 -13 -100 -56 -192
-96 -150 -64 -170 -70 -183 -56 -36 35 -111 -2 -102 -50 4 -20 -22 -39 -255
-179 -247 -150 -261 -157 -291 -146 -45 16 -81 -13 -81 -66 0 -35 -10 -51
-105 -159 -69 -78 -111 -119 -122 -117 -32 6 -58 -17 -58 -51 0 -26 -11 -42
-61 -89 -46 -44 -65 -56 -77 -49 -20 11 -60 -6 -67 -29 -3 -10 0 -29 6 -43 10
-22 6 -34 -31 -101 -33 -61 -46 -76 -64 -76 -43 0 -64 -47 -39 -90 13 -23 9
-39 -46 -204 -33 -98 -61 -179 -63 -180 -2 -1 -15 -10 -31 -19 -32 -20 -34
-45 -9 -78 16 -21 18 -34 12 -99 -4 -41 -11 -118 -15 -170 -5 -73 -11 -99 -24
-110 -10 -9 -24 -26 -30 -39 -20 -37 16 -79 61 -72 4 0 23 -22 42 -50 28 -41
33 -58 29 -85 -5 -29 -2 -34 20 -39 23 -6 33 -24 73 -126 45 -116 46 -120 29
-139 -28 -31 -24 -88 9 -117 15 -12 37 -23 50 -23 18 0 28 -12 49 -57 56 -123
65 -149 56 -165 -12 -22 12 -49 46 -52 42 -3 174 -91 186 -124 17 -43 57 -56
88 -28 21 19 208 28 225 11 39 -39 76 -39 111 0 17 20 34 24 103 30 58 4 88 3
98 -5 17 -15 64 -5 64 14 0 7 13 19 30 25 16 6 43 16 59 22 17 6 47 8 69 4 32
-5 46 -16 77 -58 26 -35 39 -62 39 -85 1 -34 10 -44 48 -56 9 -3 29 -28 43
-55 21 -42 23 -54 13 -70 -16 -26 3 -68 35 -76 18 -5 28 -20 45 -73 21 -66 21
-66 2 -87 -29 -31 -26 -79 6 -104 33 -26 64 -27 95 -2 24 18 25 18 141 -27 96
-37 118 -50 123 -69 8 -33 48 -50 85 -36 25 9 43 4 145 -41 85 -37 119 -58
128 -76 16 -33 53 -37 81 -11 25 23 25 23 141 41 76 12 80 11 97 -10 21 -26
72 -42 101 -31 30 12 58 44 60 70 2 24 -18 16 236 103 145 49 207 66 214 59 6
-6 21 -11 32 -11 31 0 199 -175 192 -199 -2 -10 0 -26 5 -35 10 -17 57 -22 74
-7 5 5 41 -2 85 -16 65 -22 78 -29 90 -56 17 -39 60 -57 90 -38 18 11 35 4
150 -65 93 -55 129 -82 129 -95 0 -30 38 -62 65 -55 18 5 32 -4 69 -44 25 -27
46 -56 46 -64 0 -7 6 -16 14 -19 20 -8 58 -97 50 -116 -18 -40 -2 -71 36 -71
23 0 49 35 43 59 -5 22 52 94 80 101 32 8 35 48 5 59 -35 13 -111 130 -103
159 4 15 -2 29 -18 46 -18 18 -26 44 -38 122 l-14 100 32 32 c31 31 34 31 100
27 156 -12 176 -15 187 -29 23 -29 53 -28 77 2 21 25 55 38 251 96 135 40 235
65 247 61 25 -8 64 29 57 53 -6 17 13 42 106 140 37 39 55 51 69 47 12 -4 27
2 44 19 26 26 31 51 16 75 -11 17 107 251 127 251 7 0 22 16 33 35 12 19 24
35 28 35 3 0 54 26 111 58 220 122 219 122 248 116 19 -4 34 0 45 11 18 18 22
55 8 71 -14 14 76 356 98 374 33 26 35 57 7 83 -22 20 -32 52 -66 208 -22 101
-42 193 -45 204 -2 12 5 29 21 44 20 19 24 31 21 58 -5 37 -32 73 -53 73 -18
0 -30 26 -38 85 -11 82 -16 116 -30 195 -12 71 -12 76 7 97 38 43 18 103 -36
106 -23 2 -33 16 -86 132 -33 71 -56 132 -52 135 17 11 29 47 24 74 -7 37 -57
68 -89 56 -21 -8 -30 -2 -76 52 -29 33 -83 95 -120 137 -52 59 -64 79 -57 93
16 29 10 58 -17 84 -21 22 -31 25 -61 19 -35 -6 -39 -4 -130 87 -77 77 -93 98
-93 124 0 34 -29 57 -66 52 -16 -2 -49 24 -122 94 -82 80 -99 101 -95 121 3
14 -2 31 -12 40 -18 18 -65 23 -81 8 -5 -5 -94 31 -216 87 -157 72 -208 100
-208 114 0 10 -11 25 -24 33 -19 13 -28 13 -49 4 -22 -10 -41 -6 -132 27 -84
31 -110 45 -120 65 -19 35 -43 43 -73 23 -19 -12 -38 -15 -81 -11 -143 15
-171 20 -171 33 0 7 -13 20 -29 28 -24 13 -31 13 -48 1 -18 -13 -27 -12 -74 6
-30 11 -66 25 -81 31 -15 5 -30 18 -33 28 -8 26 -35 33 -56 14 -13 -12 -48
-17 -148 -21 l-131 -6 -21 27 c-27 35 -70 35 -98 0 -20 -25 -21 -25 -153 -23
-130 3 -133 4 -162 31 -34 33 -68 36 -95 9z m292 -60 c80 -1 107 -4 107 -14 0
-14 -197 -180 -214 -180 -49 -1 -53 3 -81 78 -23 65 -25 78 -14 93 21 26 27
28 62 26 17 -1 80 -2 140 -3z m497 4 c0 -3 -79 -68 -176 -146 l-176 -141 6 73
c11 118 16 143 33 154 9 6 25 20 35 31 16 18 32 22 106 23 47 1 87 3 88 4 5 4
84 5 84 2z m-800 -13 c0 -4 -22 -29 -48 -55 -43 -43 -52 -47 -78 -41 -37 10
-54 7 -79 -17 -21 -18 -22 -18 -104 11 -108 38 -114 44 -56 54 62 11 222 35
270 42 28 3 51 7 52 8 6 6 43 4 43 -2z m776 -128 c-39 -117 -44 -127 -74 -140
-18 -7 -35 -20 -38 -29 -5 -11 -16 -14 -43 -11 -20 3 -62 8 -93 11 -32 4 -58
11 -58 16 0 5 3 9 8 9 4 1 81 61 172 135 91 73 166 134 167 134 1 1 -17 -56
-41 -125z m176 99 c108 -42 107 -49 -19 -138 -143 -100 -170 -117 -176 -108
-6 10 71 243 85 261 15 18 32 15 110 -15z m-859 -78 c46 -119 45 -119 -135
-74 -55 14 -55 43 1 102 38 39 51 47 76 45 27 -3 33 -10 58 -73z m351 39 c-2
-95 -16 -180 -32 -196 -16 -16 -22 -16 -110 4 -75 18 -92 25 -90 39 3 19 208
190 223 185 6 -2 10 -16 9 -32z m-916 -16 c7 -9 4 -29 -12 -68 -13 -30 -37
-94 -55 -142 -22 -56 -39 -88 -51 -91 -11 -3 -63 32 -151 101 -114 91 -130
107 -113 114 21 10 342 96 360 97 6 1 16 -5 22 -11z m147 -34 c148 -49 146
-56 -56 -179 -88 -53 -162 -95 -165 -92 -3 2 0 15 5 28 6 13 27 69 47 124 20
55 40 110 45 123 11 28 26 28 124 -4z m1626 9 c49 -5 66 -11 91 -36 16 -17 32
-42 35 -56 2 -14 11 -56 19 -94 8 -39 12 -72 10 -75 -7 -6 -29 11 -184 143
-77 66 -138 124 -135 129 3 4 28 5 55 2 27 -4 77 -10 109 -13z m-238 -138 c-3
-174 -3 -174 -184 -118 -66 21 -89 33 -93 48 -3 11 0 23 7 27 7 4 66 45 132
92 66 46 125 83 130 82 6 -2 9 -52 8 -131z m169 28 c62 -54 122 -106 133 -116
11 -11 30 -26 43 -34 40 -27 28 -43 -35 -44 -32 0 -99 -3 -150 -5 -87 -5 -92
-4 -116 20 -25 25 -26 29 -21 128 6 118 11 148 24 148 5 0 60 -44 122 -97z
m326 43 c48 -19 97 -37 110 -41 43 -13 25 -42 -65 -104 -60 -43 -90 -58 -98
-51 -7 5 -15 7 -18 4 -3 -3 -9 11 -12 32 -4 22 -14 70 -21 107 -14 67 -12 87
7 87 5 0 48 -15 97 -34z m-1538 -42 c72 -16 90 -26 90 -51 0 -6 -64 -52 -142
-102 -79 -50 -157 -100 -175 -111 -17 -12 -34 -17 -37 -11 -3 5 10 53 29 107
52 144 56 154 70 154 7 0 23 9 36 20 13 10 31 17 39 15 8 -2 49 -12 90 -21z
m-1077 -93 c-77 -80 -103 -100 -120 -97 -13 3 -25 1 -28 -4 -6 -9 -70 24 -81
42 -4 5 0 16 7 24 14 13 311 143 317 138 2 -1 -41 -48 -95 -103z m148 84 c1
-14 2 -28 3 -32 1 -5 6 -43 10 -85 l8 -77 -34 -33 c-29 -30 -37 -33 -68 -27
-143 29 -151 31 -148 45 3 16 209 233 221 234 4 0 8 -11 8 -25z m159 -77 c97
-77 127 -106 120 -117 -4 -8 -42 -25 -84 -37 l-76 -23 -25 25 c-13 13 -31 24
-40 24 -10 0 -15 10 -16 33 0 17 -2 41 -4 52 -7 44 -13 145 -8 145 3 0 63 -46
133 -102z m534 -24 c-20 -54 -40 -111 -46 -125 -6 -18 -19 -29 -37 -32 -15 -3
-32 -15 -37 -25 -9 -19 -12 -18 -102 16 -86 32 -93 37 -90 60 2 21 27 40 133
105 163 99 198 117 208 108 4 -4 -9 -52 -29 -107z m518 47 c100 -25 124 -43
138 -105 9 -42 8 -50 -7 -62 -10 -8 -23 -13 -30 -11 -16 3 -203 176 -203 188
0 13 15 11 102 -10z m1399 -88 c-11 -48 -23 -101 -26 -118 -22 -123 -29 -139
-60 -142 -29 -3 -31 0 -66 81 -23 53 -33 88 -27 94 5 5 10 20 11 33 0 13 10
31 21 39 61 46 159 110 163 106 3 -3 -4 -44 -16 -93z m131 78 c50 -22 123 -55
264 -121 138 -65 139 -71 43 -221 -56 -85 -76 -109 -91 -107 -14 2 -54 65
-140 223 -125 228 -134 245 -125 245 3 0 25 -8 49 -19z m-58 -23 c8 -18 30
-60 49 -93 117 -207 188 -346 182 -356 -7 -10 -105 -7 -170 6 -11 2 -35 4 -53
4 -28 1 -34 6 -48 41 -9 22 -29 49 -44 60 l-27 19 18 73 c10 40 20 84 23 98 7
45 36 162 42 171 9 14 13 11 28 -23z m-1638 5 c-46 -154 -101 -347 -109 -380
-8 -34 -15 -43 -38 -48 -34 -8 -33 -8 -142 79 -73 58 -85 72 -77 87 6 10 10
26 10 36 0 13 32 40 100 84 56 35 133 85 173 111 79 52 91 56 83 31z m152 -82
c89 -82 100 -96 91 -113 -6 -11 -8 -39 -6 -63 l6 -42 -77 -33 c-42 -19 -114
-51 -159 -72 -84 -39 -119 -47 -111 -25 3 6 34 110 68 230 40 139 68 217 75
215 7 -2 58 -45 113 -97z m317 64 c11 -2 28 -4 38 -4 31 -2 18 -36 -32 -85
-40 -40 -52 -46 -67 -37 -11 5 -31 12 -45 15 -22 5 -29 14 -38 52 -16 64 -5
75 67 68 32 -3 66 -7 77 -9z m308 -70 c54 -15 94 -31 90 -35 -7 -5 -122 -30
-262 -56 -13 -3 -52 -11 -87 -18 -60 -13 -63 -13 -68 8 -4 16 6 33 41 69 41
41 51 46 78 41 22 -4 38 0 55 14 15 12 31 17 40 13 8 -4 59 -20 113 -36z
m-2141 -60 c4 -15 14 -32 23 -39 12 -9 15 -25 13 -69 -2 -31 -7 -58 -13 -58
-11 -1 -93 186 -94 214 -1 18 1 18 31 -1 18 -12 36 -33 40 -47z m-183 38 c-8
-10 -60 -73 -117 -139 -83 -98 -107 -121 -129 -121 -14 0 -33 -9 -42 -20 -14
-17 -30 -20 -121 -22 -58 -1 -102 0 -99 4 8 7 256 158 374 226 50 29 101 61
114 71 30 23 37 23 20 1z m133 -108 c39 -98 44 -116 31 -126 -8 -7 -20 -24
-28 -39 l-13 -26 -154 1 c-84 1 -159 5 -166 9 -9 5 -1 22 30 59 24 29 48 57
54 62 6 6 33 37 60 70 27 32 58 70 68 82 11 13 31 23 46 23 24 0 30 -9 72
-115z m2711 82 c5 -13 -55 -113 -88 -146 -7 -8 -29 -15 -47 -17 -29 -2 -41 6
-105 69 -40 39 -73 77 -73 84 0 12 28 15 216 21 71 2 93 -1 97 -11z m-2030
-23 c9 -4 17 -10 17 -16 0 -13 19 -197 25 -240 3 -24 1 -38 -6 -38 -10 0 -95
71 -189 157 -19 18 -38 33 -42 33 -4 0 -3 13 2 29 4 16 6 32 3 35 -7 7 149 55
162 50 6 -2 18 -7 28 -10z m1531 -114 c-64 -81 -92 -109 -103 -104 -38 15 -52
15 -76 0 -28 -19 -33 -17 -121 41 l-51 34 12 37 13 37 203 41 c112 23 205 37
207 33 2 -5 -36 -59 -84 -119z m-2002 95 c35 -8 75 -16 89 -18 14 -2 25 -12
28 -23 2 -10 7 -24 12 -30 6 -8 -15 -29 -68 -67 -71 -52 -78 -55 -89 -38 -7
10 -27 24 -44 31 -29 12 -30 15 -30 73 0 45 4 63 18 73 21 16 10 17 84 -1z
m549 1 c19 -7 67 -26 107 -40 50 -19 72 -33 72 -44 -1 -19 -160 -192 -177
-192 -7 0 -15 26 -18 58 -4 31 -8 68 -10 82 -11 79 -16 150 -12 150 2 0 20 -6
38 -14z m2048 -68 l38 -83 -26 -32 c-30 -38 -32 -38 -111 -16 -51 14 -60 20
-65 44 -5 23 3 42 42 99 29 43 55 70 66 70 13 0 29 -24 56 -82z m-467 -109
c-2 -96 -7 -178 -12 -183 -5 -5 -48 8 -99 30 -90 38 -91 38 -91 74 1 35 7 45
149 219 19 23 39 40 45 38 8 -3 10 -58 8 -178z m115 109 c62 -64 71 -78 71
-109 0 -20 -3 -40 -6 -45 -13 -17 -149 -134 -157 -134 -4 0 -5 57 -2 128 4 70
6 151 7 180 0 28 3 52 8 52 4 0 40 -33 79 -72z m1217 -67 c53 -51 96 -100 96
-107 0 -8 -10 -14 -22 -15 -13 0 -32 -2 -43 -3 -11 -2 -60 -7 -110 -11 -49 -4
-97 -9 -106 -10 -9 -2 -38 -5 -65 -6 -59 -4 -69 15 -32 64 13 18 45 66 71 107
43 70 48 75 81 75 30 0 47 -12 130 -94z m-3124 -31 c35 -30 79 -70 99 -87 20
-18 39 -33 44 -33 4 0 7 -6 7 -14 0 -10 -16 -17 -47 -22 -27 -3 -57 -8 -68
-10 -11 -2 -47 -7 -80 -10 -33 -4 -63 -8 -66 -10 -4 -2 -14 5 -23 15 -14 15
-15 32 -10 102 9 117 8 113 34 126 28 14 30 13 110 -57z m-167 54 c14 -5 14
-11 3 -109 -3 -22 -5 -52 -5 -66 -1 -16 -10 -30 -24 -38 -20 -11 -32 -8 -88
18 -62 28 -65 32 -64 63 1 28 11 39 76 85 79 56 79 56 102 47z m631 -73 c25
-114 27 -135 12 -154 -12 -16 -19 -16 -100 -2 -48 8 -96 17 -107 18 -46 7 -39
24 51 119 110 116 122 118 144 19z m177 -64 c27 -21 35 -34 32 -51 -4 -19 -14
-25 -56 -32 -40 -7 -58 -6 -78 5 -26 14 -36 44 -65 194 -2 12 18 2 64 -35 37
-29 83 -65 103 -81z m443 -39 c-40 -67 -77 -125 -81 -129 -5 -3 -24 -9 -43
-13 -30 -5 -45 1 -107 41 -103 65 -101 81 15 135 226 106 256 117 273 101 15
-13 10 -25 -57 -135z m292 96 c62 -39 74 -50 74 -73 0 -15 6 -33 12 -39 10
-10 -5 -29 -72 -92 -47 -44 -88 -80 -91 -80 -4 0 -12 37 -19 83 -6 45 -14 93
-16 106 -17 112 -17 108 7 125 13 9 25 16 27 16 3 0 38 -21 78 -46z m-152 8
c10 -17 46 -276 41 -293 -5 -15 -16 -17 -78 -12 -40 2 -83 6 -97 8 -14 2 -30
4 -37 4 -7 1 -17 10 -23 21 -9 17 -3 35 42 108 29 48 58 96 65 107 7 11 18 30
24 43 12 22 52 31 63 14z m964 -43 c47 -11 52 -15 52 -40 0 -25 -4 -28 -52
-38 -29 -6 -118 -23 -198 -40 -80 -16 -146 -28 -148 -26 -1 1 32 32 73 69 67
58 80 66 110 62 23 -3 39 1 52 15 10 10 27 16 38 14 11 -3 44 -10 73 -16z
m-3134 -122 c-3 -28 -7 -63 -9 -77 -2 -14 -4 -33 -4 -42 -2 -37 -40 -15 -135
81 -67 68 -97 104 -93 115 5 12 27 16 104 18 90 3 100 1 120 -20 19 -19 21
-30 17 -75z m402 68 c8 -17 19 -34 24 -39 10 -11 -68 -136 -86 -136 -17 0
-275 190 -270 199 3 3 75 6 161 6 l156 -1 15 -29z m3770 -6 c11 -9 4 -30 -36
-109 l-50 -99 -38 1 c-21 0 -48 -6 -60 -13 -20 -12 -25 -10 -59 22 -21 19 -66
62 -100 94 -71 65 -70 80 1 84 24 1 53 4 65 6 11 2 62 7 113 11 51 3 94 7 95
8 9 7 59 4 69 -5z m-3988 -90 c67 -50 122 -95 122 -100 0 -5 -10 -9 -22 -10
-24 -1 -29 -1 -150 -23 -77 -13 -77 -13 -100 11 -20 21 -23 33 -20 83 2 32 5
66 7 76 2 11 4 27 4 37 2 33 38 16 159 -74z m3397 76 c11 -2 34 -4 52 -4 20
-1 36 -8 42 -19 7 -14 -7 -36 -71 -112 -44 -52 -88 -105 -98 -117 -16 -20 -23
-22 -56 -15 -36 7 -40 12 -75 92 -21 47 -38 90 -38 96 -1 6 10 17 24 24 14 7
30 26 37 43 l13 29 75 -7 c41 -4 84 -9 95 -10z m-2890 -42 l40 -21 -25 -11
c-23 -10 -235 -69 -304 -85 l-29 -7 23 38 c13 21 30 49 38 63 12 21 22 25 63
25 37 0 54 5 70 22 24 24 33 22 124 -24z m-1007 -56 c4 -113 -2 -119 -132
-146 -55 -12 -101 -19 -104 -17 -7 8 212 255 223 252 6 -1 11 -42 13 -89z
m154 -4 c54 -54 98 -104 98 -112 0 -19 -208 -10 -221 10 -10 16 -12 183 -2
192 15 15 32 3 125 -90z m2792 49 c38 -16 72 -36 77 -44 5 -9 -17 -47 -72
-118 -44 -58 -87 -114 -94 -124 -8 -11 -16 -18 -19 -15 -4 4 -10 66 -22 232
-4 61 -3 92 6 102 13 15 12 16 124 -33z m1718 -51 c83 -82 95 -99 88 -117 -7
-18 -22 -24 -82 -34 -40 -6 -84 -14 -98 -16 -94 -16 -110 -17 -110 -2 0 9 -10
28 -22 43 l-21 27 39 77 c57 110 61 116 86 117 18 1 50 -24 120 -95z m-1135
70 c10 -15 -2 -38 -80 -152 l-91 -135 -44 1 c-47 0 -41 -5 -147 119 -27 33
-56 65 -62 72 -12 12 -18 34 -9 34 2 0 57 11 122 24 66 13 135 27 154 30 19 4
51 10 70 14 59 13 75 12 87 -7z m-742 -11 c1 -8 5 -51 9 -95 20 -234 20 -212
-4 -220 -16 -5 -32 2 -64 27 -23 18 -65 51 -94 73 -28 22 -51 47 -52 55 -1 20
171 181 189 178 8 -2 15 -10 16 -18z m-1375 -4 c0 -8 -3 -16 -7 -18 -5 -1 -48
-49 -96 -105 -84 -97 -89 -102 -115 -92 -15 6 -29 10 -31 9 -3 -1 -14 28 -25
65 -16 56 -17 69 -6 91 16 29 12 28 195 50 28 4 52 8 54 10 10 10 31 3 31 -10z
m322 -35 c4 -3 -14 -38 -40 -77 l-47 -70 -34 12 c-28 9 -43 26 -78 87 -25 42
-42 81 -39 85 6 10 225 -25 238 -37z m268 26 c22 -2 63 -22 108 -51 64 -43 72
-53 72 -80 0 -29 -6 -34 -92 -78 -77 -39 -95 -45 -108 -34 -8 7 -26 12 -40 12
-21 -1 -33 13 -77 91 -29 50 -53 98 -53 106 0 31 46 48 115 41 22 -2 56 -5 75
-7z m2031 -9 c0 -7 2 -22 4 -33 5 -33 16 -135 21 -210 8 -100 1 -104 -119 -75
l-93 23 -12 39 -12 39 96 114 c93 111 113 129 115 103z m138 -76 l93 -87 -11
-42 c-6 -22 -9 -48 -5 -56 4 -12 -10 -24 -55 -47 -52 -26 -64 -28 -81 -18 -27
17 -27 19 -45 228 -3 36 -8 75 -11 88 -8 39 18 24 115 -66z m-2654 1 c33 -58
44 -85 39 -103 -3 -14 -6 -26 -7 -26 -1 -1 -66 -15 -145 -32 l-143 -30 -10 26
c-10 25 -8 28 36 78 98 110 131 148 133 155 2 5 14 9 27 9 20 0 33 -15 70 -77z
m2110 65 c1 -2 21 -47 44 -101 35 -85 39 -101 26 -113 -7 -8 -17 -23 -20 -34
-7 -22 -22 -27 -110 -35 -33 -2 -85 -7 -115 -11 -48 -5 -57 -3 -67 14 -11 18
-1 37 80 157 l92 137 34 -6 c18 -3 35 -6 36 -8z m-2575 -27 c0 -5 -28 -33 -62
-63 -35 -29 -79 -67 -98 -85 -114 -102 -142 -120 -166 -109 -28 13 -30 18 -39
87 -4 38 -2 59 7 71 8 11 72 35 168 62 165 46 190 51 190 37z m792 -98 c54
-94 55 -99 38 -117 -17 -18 -20 -17 -116 11 -68 20 -100 34 -102 45 -4 22 89
157 108 158 9 0 39 -40 72 -97z m-724 3 c18 -61 19 -72 6 -90 -8 -11 -14 -28
-14 -37 0 -14 -27 -22 -142 -43 -79 -15 -155 -29 -170 -32 -30 -6 -37 8 -15
29 74 72 301 256 307 250 4 -4 17 -39 28 -77z m1965 62 c7 -7 48 -56 93 -108
74 -87 80 -97 70 -120 -13 -29 0 -27 -156 -35 -69 -3 -146 -8 -171 -10 -43 -3
-47 -2 -52 21 -3 20 15 50 87 144 50 66 97 120 104 120 7 0 19 -6 25 -12z
m-615 -74 c62 -7 63 -9 24 -113 -23 -64 -31 -76 -56 -82 -16 -5 -32 -6 -36 -4
-16 10 -130 185 -120 185 5 0 10 6 10 14 0 15 41 15 178 0z m-1820 -6 c5 -7
14 -39 19 -70 9 -53 8 -59 -13 -79 l-22 -21 -129 62 c-144 70 -140 67 -127 79
9 9 48 16 149 27 28 3 52 8 54 10 10 9 59 3 69 -8z m-410 -33 c8 -3 12 -12 10
-20 -5 -22 -130 -124 -145 -118 -15 6 -75 131 -68 142 4 8 180 4 203 -4z
m1962 -12 c-41 -133 -77 -222 -92 -226 -10 -3 -33 13 -61 42 -39 41 -44 50
-40 82 5 33 10 38 96 82 51 25 95 46 99 46 4 1 3 -11 -2 -26z m469 -52 c76
-60 116 -109 93 -112 -12 -1 -56 -9 -146 -25 l-89 -16 -22 28 -22 28 29 80
c16 44 32 84 35 89 8 13 27 3 122 -72z m-2749 -20 c-36 -53 -67 -88 -74 -85
-22 8 -88 103 -83 118 3 8 32 20 64 26 32 7 72 16 88 20 69 18 69 14 5 -79z
m2398 0 l62 -89 -15 -35 c-14 -34 -16 -35 -102 -47 -82 -12 -119 -7 -117 14 0
4 18 61 40 126 28 85 44 120 55 120 9 0 43 -40 77 -89z m-2274 0 c35 -80 30
-87 -82 -96 -68 -5 -83 -4 -76 7 10 17 94 140 107 156 13 16 18 10 51 -67z
m4720 48 c17 -21 17 -24 1 -78 -9 -31 -19 -65 -22 -76 -3 -13 -19 -25 -45 -33
-40 -13 -40 -12 -131 45 -50 32 -95 61 -100 64 -5 4 -7 18 -3 32 5 20 14 26
48 31 79 12 113 18 153 26 65 13 80 11 99 -11z m-4144 -152 c0 -31 -6 -38 -97
-97 -92 -60 -133 -74 -153 -53 -5 4 -11 32 -15 62 -4 30 -9 63 -11 75 -2 11
-6 49 -10 84 -9 100 0 101 157 25 127 -62 129 -63 129 -96z m-324 135 c6 -4
16 -50 22 -102 6 -52 15 -116 18 -142 6 -46 6 -48 -17 -48 -30 1 -190 148
-186 171 3 18 9 24 81 87 49 42 62 48 82 34z m1264 0 c0 -5 -32 -51 -71 -103
-39 -52 -79 -109 -90 -126 -12 -18 -28 -33 -37 -33 -19 0 -127 183 -118 199 4
5 19 12 34 15 15 4 38 9 52 12 14 3 36 7 50 10 14 3 50 10 80 17 71 16 100 19
100 9z m165 -16 c117 -33 134 -40 158 -71 l25 -32 -45 -66 c-25 -38 -52 -67
-61 -67 -19 0 -22 3 -82 115 -24 44 -49 89 -57 100 -23 34 -17 45 20 34 17 -6
37 -12 42 -13z m3242 -112 c59 -69 111 -131 115 -138 13 -24 -6 -36 -42 -27
-19 5 -83 19 -142 32 -88 17 -108 25 -108 39 0 10 -7 23 -15 30 -20 16 -19 29
6 110 19 65 28 75 66 79 7 0 61 -56 120 -125z m-3271 -7 c60 -110 61 -112 45
-141 l-16 -28 -164 6 c-91 4 -167 9 -169 11 -6 6 18 42 108 163 66 90 79 102
105 102 28 -1 34 -9 91 -113z m-1935 -22 c36 -112 37 -120 22 -137 -20 -23
-25 -21 -135 48 -60 38 -88 62 -88 75 0 30 110 138 139 136 21 -2 28 -14 62
-122z m59 15 c0 -9 4 -20 10 -26 5 -5 11 -28 14 -51 5 -50 -17 -66 -32 -25
-18 46 -62 187 -62 196 0 5 16 -11 35 -35 19 -24 35 -51 35 -59z m1306 65 c3
-8 -14 -48 -38 -90 -32 -56 -47 -73 -60 -69 -9 3 -30 -2 -46 -10 -27 -14 -32
-13 -108 30 -91 52 -112 70 -99 83 6 5 71 21 145 36 74 14 135 27 137 28 1 1
15 3 33 4 19 1 33 -3 36 -12z m2539 -171 c-45 -118 -63 -145 -97 -144 -7 1
-53 53 -101 118 -73 96 -87 121 -82 142 9 36 13 38 85 45 36 4 92 10 125 14
57 7 61 6 89 -22 l28 -28 -47 -125z m618 166 c12 -11 35 -24 51 -28 33 -9 31
0 39 -185 5 -101 4 -108 -15 -118 -23 -12 -38 1 -140 128 -25 32 -58 71 -72
88 -22 26 -27 54 -12 72 3 3 120 63 124 63 2 0 13 -9 25 -20z m283 -67 c80
-52 84 -56 84 -91 0 -35 -6 -41 -102 -114 -90 -67 -104 -75 -125 -65 -18 8
-23 18 -24 51 0 23 -2 49 -4 59 -2 9 -5 58 -7 107 l-3 90 30 19 c35 21 31 22
151 -56z m-623 44 c109 -31 114 -43 68 -164 -32 -83 -38 -93 -61 -93 -22 0
-32 14 -87 124 -57 114 -60 124 -45 140 20 20 29 20 125 -7z m-2665 -78 c28
-50 52 -95 52 -100 0 -5 -44 -9 -97 -10 -54 0 -108 -2 -120 -3 -16 -2 -25 5
-34 26 -10 25 -7 35 30 97 35 60 46 70 74 74 17 2 34 4 37 5 3 1 29 -39 58
-89z m751 27 c63 -64 56 -74 -68 -107 -141 -38 -147 -33 -76 73 28 42 53 68
67 71 13 2 25 5 28 6 3 0 25 -19 49 -43z m1218 29 c4 -12 -16 -38 -69 -91
l-74 -75 -30 16 c-33 17 -96 20 -124 5 -17 -9 -24 -1 -59 57 -22 38 -36 71
-32 76 4 4 50 10 102 14 52 3 95 6 96 7 1 0 42 2 92 4 77 3 92 1 98 -13z m601
-129 c60 -116 61 -119 45 -145 -10 -14 -18 -27 -18 -29 -1 -1 -50 -5 -108 -8
-71 -4 -107 -3 -107 4 0 6 -7 17 -15 26 -14 13 -10 29 36 145 41 104 56 131
73 133 11 2 24 2 27 -1 4 -4 34 -59 67 -125z m-3830 66 c-24 -26 -54 -57 -64
-69 -18 -20 -23 -21 -55 -10 -31 11 -35 16 -34 49 0 53 18 66 105 73 41 4 77
9 79 11 2 2 7 2 10 -1 2 -3 -16 -27 -41 -53z m2705 -44 c-193 -313 -207 -333
-230 -330 -29 4 -32 18 -36 167 l-3 120 30 20 c17 11 32 29 34 40 2 11 7 24
12 28 6 7 191 43 238 46 6 1 -14 -41 -45 -91z m-2489 -29 c84 -80 79 -85 -88
-88 -75 -1 -145 -4 -155 -6 -14 -3 -22 5 -30 27 -13 36 -12 37 57 110 81 85
81 85 216 -43z m2639 38 l38 -66 -23 -31 c-18 -25 -23 -44 -23 -90 l1 -59
-101 -45 c-55 -24 -126 -56 -157 -70 -109 -49 -103 -34 165 391 17 27 32 40
44 39 10 -2 34 -31 56 -69z m578 -60 c124 -162 125 -159 -95 -156 -94 2 -178
5 -187 7 -10 2 -16 16 -17 39 -1 20 -9 47 -18 61 -16 24 -15 25 56 97 l72 72
50 -3 51 -2 88 -115z m-2776 9 c-3 -39 -7 -84 -10 -101 -2 -16 -7 -68 -10
-115 -11 -142 -12 -151 -22 -161 -7 -7 -23 5 -46 33 -19 24 -67 81 -106 128
-53 65 -69 90 -64 105 4 11 7 30 7 43 1 17 26 39 105 91 92 61 106 68 127 59
23 -11 24 -15 19 -82z m143 68 c105 -57 127 -73 125 -90 -1 -10 5 -30 12 -44
13 -24 10 -31 -37 -104 -41 -64 -52 -76 -63 -65 -19 22 -117 299 -111 315 8
20 19 18 74 -12z m3323 -16 c19 -23 66 -80 105 -128 56 -68 70 -90 62 -103 -6
-11 -17 -15 -31 -13 -12 3 -73 10 -134 17 -88 10 -113 16 -113 27 0 9 -8 24
-17 34 -16 18 -16 22 1 69 55 155 71 167 127 97z m-4450 -74 c56 -36 66 -46
64 -67 -2 -14 3 -37 11 -52 18 -36 18 -35 -14 -72 -30 -36 -68 -41 -78 -10 -3
11 -30 70 -59 131 -28 61 -56 122 -60 135 l-7 24 38 -23 c22 -13 69 -43 105
-66z m1083 -71 c39 -108 54 -159 46 -167 -5 -5 -10 -19 -10 -30 -1 -24 -103
-99 -129 -94 -18 4 -18 17 -8 138 4 41 10 107 13 145 3 39 7 84 9 100 2 17 4
38 4 48 2 43 22 6 75 -140z m1594 133 c2 -10 0 -21 -5 -25 -4 -3 -39 -42 -78
-86 -125 -144 -131 -146 -141 -48 -3 27 -7 61 -9 77 -7 50 26 79 103 92 92 16
126 13 130 -10z m-2775 -133 c37 -82 67 -151 67 -155 0 -14 -26 -8 -86 20 -32
16 -74 34 -92 42 -22 8 -38 24 -47 48 -15 34 -14 37 27 113 23 44 47 79 53 79
6 0 41 -66 78 -147z m2521 44 c16 -128 16 -128 -8 -138 -19 -9 -39 0 -136 58
-62 38 -115 73 -117 79 -3 9 31 22 94 36 5 1 33 9 63 18 71 21 97 8 104 -53z
m317 58 c0 0 3 -64 6 -142 l5 -143 -25 -9 c-14 -6 -35 -20 -46 -33 l-22 -23
-67 35 c-58 31 -68 39 -73 70 -8 38 -7 40 93 152 35 39 67 77 71 84 6 10 43
16 58 9z m2460 -16 c52 -11 110 -23 129 -26 32 -5 60 -26 60 -45 0 -4 -61 -51
-136 -104 -123 -87 -138 -95 -160 -85 -17 7 -24 19 -25 38 0 16 -2 35 -3 43
-2 8 -6 46 -10 83 -6 65 -5 69 21 92 16 13 28 25 29 25 0 0 43 -9 95 -21z
m-179 -28 c7 -6 10 -31 24 -159 6 -55 4 -66 -14 -82 -21 -20 -24 -20 -162 20
-88 26 -95 31 -98 63 -1 21 15 38 100 101 99 74 122 83 150 57z m-3427 -15
c-11 -7 -105 -57 -210 -111 -151 -79 -187 -94 -174 -74 9 13 31 48 48 77 28
44 37 52 63 52 22 0 40 10 62 33 31 33 31 33 130 35 86 1 97 0 81 -12z m447
-14 c15 -16 13 -22 -30 -88 l-47 -70 -34 10 c-23 7 -43 6 -64 -2 -24 -9 -32
-9 -41 3 -103 133 -126 163 -126 168 0 3 73 3 163 1 133 -5 165 -9 179 -22z
m-378 -107 c8 -139 15 -260 22 -352 2 -39 1 -74 -3 -76 -5 -3 -67 39 -139 93
-118 88 -131 101 -130 127 1 22 31 66 121 175 66 80 121 145 122 144 1 0 4
-51 7 -111z m-115 18 c-39 -49 -90 -111 -113 -139 -53 -67 -87 -73 -168 -33
-35 18 -55 34 -53 41 3 7 74 49 158 92 83 44 170 90 192 102 22 13 44 23 48
24 5 0 -24 -39 -64 -87z m209 -6 l61 -77 -15 -36 c-18 -42 -12 -82 17 -113
l21 -22 -63 -95 c-34 -52 -63 -93 -65 -92 -3 4 -13 124 -19 248 -3 58 -8 146
-11 195 -3 56 -2 86 4 80 5 -5 37 -45 70 -88z m512 12 c115 -70 117 -72 118
-109 2 -35 -3 -43 -57 -89 -87 -76 -93 -71 -147 115 -24 82 -44 150 -44 152 0
8 25 -5 130 -69z m-1661 25 c10 -23 5 -33 -60 -116 l-71 -92 -56 1 -57 0 -61
73 -61 72 24 43 24 43 131 1 c73 1 134 3 136 5 9 10 41 -9 51 -30z m1557 -121
c40 -137 41 -143 23 -159 -17 -15 -23 -14 -102 16 -80 30 -83 32 -79 59 2 16
-3 42 -12 60 -16 30 -16 31 31 101 39 60 50 71 72 68 23 -3 28 -14 67 -145z
m3247 131 c13 -5 12 -18 -9 -97 -60 -223 -62 -225 -190 -166 -116 53 -114 58
51 175 151 108 130 95 148 88z m89 -52 c9 -20 35 -76 57 -123 36 -77 39 -88
28 -112 -9 -21 -19 -27 -47 -28 -19 0 -57 -2 -85 -4 -38 -3 -53 0 -67 14 -16
18 -15 24 13 120 16 56 29 105 29 110 0 6 4 21 10 35 14 38 42 32 62 -12z
m-4837 -122 c4 -74 7 -137 7 -140 3 -58 -14 -65 -93 -42 -54 15 -59 19 -59 45
0 15 -6 38 -14 50 -14 21 -11 27 45 102 70 93 99 128 104 123 2 -1 6 -64 10
-138z m143 16 c128 -156 128 -161 6 -196 -79 -22 -86 -22 -102 -7 -18 18 -17
15 -26 200 -5 102 -4 127 7 127 7 0 59 -56 115 -124z m2890 84 c112 -2 134 -5
139 -18 9 -23 -255 -273 -277 -263 -8 4 -24 7 -35 7 -16 -1 -32 22 -73 102
l-54 104 24 26 c39 46 47 50 96 46 26 -1 107 -3 180 -4z m497 -10 c8 -24 15
-12 -129 -213 -102 -142 -121 -164 -138 -158 -19 7 -20 16 -19 150 1 78 4 148
7 155 3 8 14 16 25 19 10 3 23 17 28 31 11 27 -1 25 178 33 34 2 43 -2 48 -17z
m-4350 -36 c92 -41 104 -50 119 -84 16 -37 16 -41 -9 -133 -14 -52 -25 -98
-25 -102 0 -3 -9 -5 -21 -3 -16 2 -37 39 -95 163 -40 88 -78 167 -83 176 -9
15 -5 29 7 29 2 0 50 -21 107 -46z m347 32 c31 6 36 2 96 -71 58 -72 61 -79
47 -95 -15 -17 -19 -17 -73 1 -31 10 -89 28 -129 40 -87 26 -96 44 -52 100 26
33 33 37 54 29 13 -5 39 -7 57 -4z m4316 -2 c31 -4 64 -8 72 -10 8 -1 18 -3
21 -3 14 -2 31 -61 22 -74 -118 -150 -158 -192 -184 -193 -27 -1 -31 5 -81
124 l-53 125 20 24 c21 26 13 25 183 7z m-4787 -36 c7 -18 39 -89 72 -158 84
-179 81 -166 51 -206 -14 -18 -30 -32 -34 -29 -4 2 -55 5 -114 6 -155 2 -153
-5 -74 232 34 103 67 187 74 187 6 0 17 -15 25 -32z m3503 -3 c18 -14 39 -25
46 -25 12 0 11 -18 -5 -111 -2 -13 -13 -80 -25 -149 -28 -175 -26 -168 -60
-175 -27 -6 -42 4 -175 117 -130 111 -144 126 -138 148 3 14 7 38 7 55 1 29 7
33 151 97 83 37 154 67 158 67 5 1 23 -10 41 -24z m1045 2 c12 3 28 -26 69
-123 47 -115 50 -129 37 -144 -8 -9 -15 -25 -15 -36 0 -16 -24 -25 -176 -63
l-177 -44 -18 24 c-11 13 -17 31 -15 40 2 8 58 93 126 187 96 135 126 170 138
163 8 -5 22 -7 31 -4z m-391 -6 c10 -6 13 -42 11 -152 -2 -157 -4 -169 -26
-169 -8 0 -28 -13 -45 -30 -16 -16 -33 -30 -36 -30 -12 0 -156 62 -169 72 -7
6 -11 13 -9 17 2 3 0 15 -4 26 -7 17 13 41 123 147 73 70 134 127 137 128 3 0
11 -4 18 -9z m1007 -35 c50 -15 97 -29 106 -32 9 -3 19 -16 21 -29 4 -21 -10
-38 -86 -108 -65 -60 -95 -82 -106 -76 -8 4 -22 10 -31 12 -12 4 -22 35 -37
114 l-21 108 22 23 c11 12 26 21 32 19 5 -3 51 -16 100 -31z m-1449 -93 c46
-87 51 -103 39 -113 -8 -7 -15 -29 -15 -50 0 -37 -4 -41 -97 -108 -139 -100
-138 -103 -95 159 l35 208 31 4 c17 2 35 3 40 2 4 0 32 -46 62 -102z m-784 9
c16 -16 -10 -30 -62 -35 -30 -4 -77 -9 -105 -12 -27 -3 -81 -9 -118 -14 -42
-5 -70 -4 -74 2 -3 6 20 34 53 63 53 47 63 52 94 48 22 -4 42 0 54 9 18 13 26
11 85 -20 36 -19 69 -37 73 -41z m2043 68 c12 0 24 -39 40 -125 16 -86 16 -90
-10 -118 -25 -29 -26 -29 -108 -21 -45 4 -88 7 -95 7 -21 0 -46 45 -35 60 99
129 168 207 180 203 8 -3 21 -6 28 -6z m-3369 -105 c3 -14 10 -25 14 -25 4 0
-20 -81 -52 -181 -33 -99 -64 -177 -68 -172 -7 7 -12 53 -26 243 -3 41 -7 102
-10 134 -6 85 4 92 77 56 42 -22 60 -37 65 -55z m-1131 35 l120 -40 2 -34 1
-33 -159 -63 c-158 -63 -159 -63 -181 -44 -13 10 -24 19 -26 20 -1 1 9 48 23
106 37 145 42 147 220 88z m959 32 c6 -10 13 -81 21 -217 4 -55 9 -131 11
-170 3 -45 1 -66 -5 -60 -5 6 -48 74 -95 152 -80 134 -85 144 -78 182 6 35 15
47 62 81 55 40 75 47 84 32z m4132 -98 c10 -5 12 -11 16 -51 1 -10 -24 -62
-56 -116 -51 -86 -60 -97 -79 -91 -12 3 -23 8 -25 9 -2 2 -10 49 -28 160 -3
22 -10 60 -14 85 -7 35 -5 49 7 62 14 15 20 14 91 -19 43 -19 82 -37 88 -39z
m-3204 25 c80 -29 84 -32 96 -71 13 -40 13 -40 -35 -96 -26 -32 -47 -58 -48
-59 -5 -10 -74 13 -78 26 -3 9 -19 56 -37 104 -30 86 -31 90 -13 107 10 11 21
19 24 19 4 1 45 -13 91 -30z m2992 2 c3 -9 7 -34 10 -56 3 -22 12 -80 20 -129
9 -49 16 -92 16 -95 0 -4 -15 -14 -33 -24 l-33 -18 -98 55 c-96 53 -99 55
-101 93 -3 36 1 41 88 119 91 81 120 93 131 55z m-3109 -119 c34 -95 36 -105
21 -121 -9 -10 -16 -23 -16 -30 0 -9 -9 -11 -27 -7 -16 4 -37 8 -48 10 -76 15
-154 40 -158 51 -3 6 24 55 60 108 61 89 68 95 99 94 32 -1 33 -2 69 -105z
m712 72 c22 -34 22 -35 4 -67 -10 -17 -37 -68 -61 -112 -65 -120 -58 -113
-109 -112 l-46 0 -93 124 c-70 93 -91 128 -83 137 6 7 8 15 5 18 -7 8 34 16
121 24 39 3 87 9 108 13 22 3 60 7 85 8 44 2 49 0 69 -33z m-1145 -71 c70 -53
128 -101 128 -108 0 -7 -71 -45 -157 -85 -229 -105 -215 -100 -236 -85 -17 12
-14 23 40 189 37 110 64 177 73 180 8 2 17 4 19 5 2 0 62 -42 133 -96z m4053
56 c4 -10 10 -19 15 -19 4 0 -13 -49 -38 -110 -63 -147 -72 -147 -136 -5 -64
143 -61 147 96 152 48 1 58 -1 63 -18z m-4650 -110 c-4 -45 -8 -91 -10 -101
-2 -10 -5 -46 -6 -79 -1 -33 -5 -61 -8 -63 -3 -2 -47 58 -97 133 -103 155
-105 168 -33 190 24 8 62 19 84 25 34 11 42 10 58 -5 17 -15 18 -27 12 -100z
m-351 85 c69 -22 81 -47 59 -119 -13 -41 -22 -54 -39 -58 -20 -3 -31 8 -73 77
-46 75 -48 82 -34 98 20 22 24 22 87 2z m2278 9 c2 -5 65 -61 141 -126 76 -65
136 -124 134 -130 -2 -7 -19 -11 -38 -10 -131 6 -128 6 -166 40 -38 35 -118
197 -108 220 5 14 31 18 37 6z m-2547 -108 c-121 -223 -143 -260 -158 -263
-23 -5 -169 148 -161 168 4 8 7 26 8 40 2 23 17 31 154 86 84 34 155 64 158
67 3 3 14 1 24 -6 18 -10 16 -16 -25 -92z m760 -61 l85 -142 -16 -29 c-17 -28
-20 -29 -98 -31 -80 -2 -82 -2 -99 26 -9 16 -15 31 -13 33 2 2 7 42 10 89 11
139 18 204 23 214 7 10 3 15 108 -160z m1763 58 c38 -86 40 -97 27 -112 -8 -9
-15 -22 -15 -28 0 -6 -10 -14 -22 -17 -207 -44 -232 -47 -245 -29 -11 15 -9
24 11 58 13 23 43 77 66 121 57 105 54 102 98 102 l39 0 41 -95z m2520 86 c6
-7 29 -55 52 -107 42 -96 43 -106 13 -150 -2 -3 -43 -6 -91 -8 l-88 -3 -13 32
c-8 18 -14 38 -14 45 1 18 113 203 122 203 5 0 13 -6 19 -12z m286 -12 c3 -12
8 -41 11 -62 3 -21 11 -65 16 -97 9 -55 15 -91 23 -144 2 -15 -5 -28 -22 -39
-23 -15 -26 -15 -66 14 -26 19 -41 38 -42 54 -2 42 -4 46 -19 61 -12 13 -8 29
33 126 26 61 50 111 53 111 4 0 9 -11 13 -24z m-3201 -252 c-3 -8 -11 -14 -18
-14 -12 0 -308 79 -311 83 -1 1 -4 12 -6 24 -5 32 88 150 127 161 29 8 32 5
122 -116 54 -72 90 -129 86 -138z m-1934 177 c49 -81 55 -97 42 -106 -6 -3
-11 -17 -11 -29 0 -21 -16 -29 -167 -80 -93 -31 -172 -56 -176 -56 -8 0 28 69
115 225 18 33 39 72 47 86 11 23 19 27 62 27 l48 0 40 -67z m284 -97 c49 -75
86 -138 84 -140 -2 -2 -46 13 -98 35 -82 34 -94 42 -101 69 -4 16 -14 35 -22
41 -11 10 -11 18 1 53 17 51 32 78 41 78 4 0 47 -61 95 -136z m3830 110 c70
-6 78 -9 83 -31 4 -13 12 -27 19 -31 11 -5 -1 -40 -49 -147 -37 -82 -69 -140
-77 -140 -8 0 -37 60 -75 159 l-61 160 21 23 c13 16 28 22 41 19 11 -3 55 -8
98 -12z m-933 -30 c84 -36 85 -37 101 -85 l16 -49 -66 -58 c-98 -85 -95 -84
-123 -73 -20 8 -27 19 -32 58 -4 26 -9 66 -12 88 -3 22 -9 59 -14 82 -6 37 -4
44 14 57 11 8 23 15 26 15 3 1 43 -15 90 -35z m-155 -14 c2 -8 7 -35 10 -60 3
-25 10 -69 15 -99 22 -125 9 -133 -120 -77 -149 66 -156 70 -156 104 1 26 14
39 95 99 88 65 97 69 123 59 15 -6 30 -17 33 -26z m842 29 c16 -16 -106 -269
-127 -263 -8 2 -26 -2 -40 -9 -23 -12 -32 -8 -126 60 l-101 72 10 34 11 34
160 40 c178 45 197 48 213 32z m85 -69 c9 -25 37 -97 61 -160 56 -145 55 -148
-65 -131 -46 6 -92 13 -103 16 -11 2 -26 4 -32 4 -7 1 -13 9 -13 20 0 10 -6
24 -14 30 -13 11 -7 28 38 119 74 152 76 154 94 150 9 -2 24 -23 34 -48z m586
-116 c2 -20 10 -47 19 -60 8 -13 11 -29 7 -36 -63 -104 -158 -238 -167 -235
-10 3 -21 32 -31 82 -2 11 -12 61 -21 110 -10 50 -18 95 -19 100 -29 142 -30
157 -11 171 16 12 30 7 119 -40 98 -53 101 -56 104 -92z m-5207 104 c6 -16 17
-32 24 -36 9 -5 4 -29 -22 -97 -19 -49 -40 -93 -45 -96 -12 -8 -229 242 -221
254 3 4 60 7 128 6 l124 -2 12 -29z m2096 -24 c19 -3 35 -14 38 -24 3 -10 19
-25 35 -32 18 -8 30 -21 31 -33 1 -11 2 -31 4 -45 13 -122 16 -190 9 -189 -9
0 -306 343 -312 359 -2 5 34 0 80 -11 46 -10 97 -21 115 -25z m-254 6 c-3 -44
-15 -178 -17 -194 -3 -24 -36 -55 -54 -51 -46 10 -289 67 -305 71 -40 12 -6
38 128 100 77 35 158 73 180 84 51 25 70 22 68 -10z m3109 -11 c4 -20 9 -47
11 -60 3 -13 19 -95 36 -182 17 -87 29 -162 26 -167 -11 -17 -26 -11 -121 48
-69 42 -94 62 -94 77 0 12 -5 26 -11 32 -7 7 8 51 53 152 67 149 85 168 100
100z m-5161 -56 c40 -49 88 -103 105 -122 46 -50 36 -65 -91 -132 -138 -73
-140 -71 -130 74 4 56 9 105 11 108 2 3 4 33 5 65 1 51 12 94 23 94 2 0 37
-39 77 -87z m2247 -95 c85 -99 151 -182 149 -185 -3 -3 -72 12 -152 33 -138
37 -149 41 -171 73 -13 19 -22 37 -20 40 2 3 7 43 11 89 4 46 8 91 10 100 2 9
4 20 4 25 2 18 26 -6 169 -175z m-1824 61 c42 -45 74 -84 71 -87 -5 -6 -148
-29 -237 -38 -70 -8 -70 -8 -25 105 29 76 35 84 61 87 15 2 31 5 34 8 11 12
21 4 96 -75z m2117 55 c29 -9 63 -18 74 -20 81 -17 178 -51 181 -64 1 -8 3
-21 5 -28 6 -19 -293 -182 -320 -175 -24 6 -28 17 -35 98 -4 33 -9 84 -12 112
-6 47 -4 55 17 73 29 24 24 23 90 4z m884 -28 c74 -5 103 -23 85 -55 -5 -9
-49 -56 -98 -105 -80 -78 -92 -87 -110 -77 -14 7 -19 18 -17 32 3 12 5 54 6
93 2 73 26 130 52 121 7 -2 43 -6 82 -9z m799 -28 c-6 -49 -35 -254 -39 -273
-2 -11 -4 -26 -4 -32 -2 -26 -28 -11 -88 50 -59 59 -62 64 -60 108 2 43 5 48
82 116 61 55 83 69 96 63 9 -6 15 -19 13 -32z m216 -26 c86 -61 95 -71 98
-102 3 -34 1 -36 -80 -78 -46 -23 -118 -61 -161 -83 -46 -25 -82 -38 -87 -33
-6 6 -3 49 5 104 18 125 27 191 30 214 1 13 11 21 31 23 16 3 33 8 39 14 16
16 27 10 125 -59z m-1198 36 c18 -13 32 -30 31 -38 -1 -8 -4 -49 -5 -90 -3
-66 -5 -75 -23 -78 -11 -2 -34 -11 -52 -19 l-31 -14 -104 78 c-99 74 -104 80
-96 105 9 27 32 35 143 54 26 4 96 20 102 23 1 1 17 -9 35 -21z m-2302 -8 c26
-19 28 -23 25 -87 -1 -40 -7 -69 -14 -71 -7 -2 -20 -13 -30 -23 -17 -19 -21
-18 -180 31 -90 27 -165 51 -167 52 -3 3 314 116 329 117 5 1 21 -8 37 -19z
m256 -45 c73 -33 76 -53 24 -188 -26 -68 -47 -107 -56 -107 -8 0 -39 16 -69
36 -48 32 -55 41 -55 70 0 25 -8 41 -29 59 -24 22 -28 32 -25 73 1 26 3 56 3
67 1 11 13 27 29 36 29 17 53 11 178 -46z m4600 34 c21 -17 18 -25 -41 -110
l-56 -78 -48 2 -48 2 -20 57 -21 56 24 23 c13 12 24 30 24 40 0 11 9 19 23 21
46 6 149 -2 163 -13z m-2021 -62 c111 -49 120 -55 126 -85 6 -30 2 -36 -56
-88 -58 -51 -66 -54 -96 -47 -30 8 -35 17 -82 132 -42 101 -48 124 -36 132 20
12 13 14 144 -44z m-174 14 c3 -3 16 -33 29 -66 13 -33 31 -78 40 -100 28 -67
29 -70 5 -93 l-22 -22 -139 30 c-76 17 -141 30 -144 30 -3 0 -11 9 -18 21 -12
19 -6 28 70 106 46 47 89 91 96 99 12 13 69 10 83 -5z m2363 -12 c39 -27 43
-34 37 -61 -6 -28 -15 -33 -131 -79 l-125 -49 -17 21 c-17 20 -16 23 29 87 67
97 74 104 98 98 11 -3 27 -1 35 4 22 14 28 13 74 -21z m-4445 -40 c12 -16 28
-29 36 -29 16 0 16 -2 19 -103 2 -66 1 -69 -27 -84 -16 -8 -33 -11 -37 -6 -33
33 -180 230 -180 240 0 8 23 13 68 15 87 4 95 2 121 -33z m4005 21 c18 0 25
-10 40 -56 l17 -55 -25 -26 c-14 -14 -28 -40 -32 -59 -6 -31 -9 -34 -63 -44
-31 -6 -75 -15 -98 -19 -48 -10 -63 7 -40 43 8 12 45 67 82 124 47 72 72 102
82 98 8 -3 25 -6 37 -6z m-3551 -75 c15 -4 27 -13 27 -20 0 -7 9 -19 20 -26
21 -14 34 -70 35 -149 0 -27 -4 -35 -17 -34 -19 2 -388 286 -382 295 3 5 209
-38 317 -66z m871 64 c24 -11 25 -15 21 -93 -1 -44 -4 -93 -4 -108 -1 -18 -7
-28 -16 -28 -9 0 -18 -7 -21 -15 -4 -10 -13 -13 -26 -9 -11 3 -26 7 -32 8
-148 26 -259 53 -263 64 -7 17 11 29 130 92 54 28 117 62 140 76 50 28 41 26
71 13z m201 -67 l100 -78 -4 -44 c-1 -25 -5 -48 -7 -51 -2 -4 -51 -10 -108
-14 -137 -9 -145 -3 -140 105 1 41 3 89 3 105 1 27 22 49 51 53 3 1 50 -34
105 -76z m-2553 35 c-5 -7 -42 -58 -82 -115 -90 -128 -96 -129 -163 -14 -56
96 -54 106 26 116 28 4 68 10 87 13 19 3 55 8 80 12 50 8 65 5 52 -12z m900
-84 c119 -153 111 -140 98 -164 -10 -17 -18 -20 -56 -15 -24 3 -65 8 -91 11
-98 12 -118 16 -130 28 -19 19 67 244 94 247 1 0 39 -48 85 -107z m-674 51
c65 -20 132 -40 150 -45 17 -6 32 -15 32 -22 0 -7 3 -21 6 -32 7 -28 -61 -115
-90 -114 -13 0 -50 33 -101 91 -139 157 -151 173 -132 165 10 -4 71 -23 135
-43z m1162 -144 c67 -52 127 -98 132 -101 5 -3 6 -17 3 -31 -6 -22 -17 -27
-106 -48 -81 -19 -103 -21 -121 -11 -13 6 -37 11 -53 9 -40 -3 -58 8 -46 30
22 43 -10 115 -62 137 -31 13 -31 13 -32 95 -1 77 0 82 24 94 23 13 29 10 81
-33 32 -25 112 -89 180 -141z m-1153 -20 c78 -82 76 -91 -58 -228 -73 -77
-114 -112 -125 -108 -12 5 -14 32 -10 188 2 101 5 221 5 268 l2 85 67 -75 c37
-41 90 -99 119 -130z m-213 -67 c-3 -142 -8 -260 -11 -263 -5 -6 -12 5 -84
138 -75 139 -74 148 21 280 40 56 75 102 77 102 2 0 1 -116 -3 -257z m4231
227 c33 -5 80 -13 105 -16 88 -12 83 -18 -117 -149 -178 -118 -188 -122 -210
-108 -22 14 -22 16 -7 51 8 21 29 70 46 110 25 60 34 72 53 72 13 0 33 11 46
25 13 13 24 25 24 25 0 0 27 -5 60 -10z m-4582 -19 c28 -11 123 -169 109 -183
-9 -9 -352 62 -352 72 0 4 208 119 217 120 1 0 13 -4 26 -9z m5866 -10 c10
-10 23 -20 29 -22 12 -5 -32 -212 -46 -217 -5 -1 -17 -9 -27 -16 -15 -11 -33
-4 -129 45 -61 32 -111 63 -111 71 -2 50 9 59 130 108 66 26 123 49 128 49 4
1 15 -7 26 -18z m-3781 -37 c105 -28 142 -42 140 -53 -2 -8 -54 -43 -116 -79
l-113 -65 -19 21 c-11 11 -28 23 -39 27 -15 4 -21 22 -31 86 -9 63 -9 84 1 95
7 8 17 13 23 11 6 -3 75 -22 154 -43z m2321 34 c0 -7 -19 -58 -43 -113 l-42
-99 -38 -3 c-21 -1 -49 -9 -63 -18 -23 -15 -27 -15 -86 18 -39 21 -62 40 -62
51 0 12 45 42 145 95 141 76 191 94 189 69z m-578 -11 c19 3 37 -9 88 -61 36
-36 62 -69 58 -72 -4 -4 -81 -8 -172 -8 -138 -1 -165 1 -168 14 -3 9 23 41 61
76 54 50 70 60 87 54 12 -4 32 -6 46 -3z m2124 -79 c19 -85 16 -69 49 -222 15
-65 24 -121 21 -124 -3 -3 -27 14 -53 39 -25 24 -49 45 -51 47 -3 1 -4 18 -3
37 2 23 -4 40 -17 52 -20 18 -20 19 0 108 28 132 29 135 33 135 3 0 12 -33 21
-72z m-1171 4 c-3 -26 -13 -103 -22 -171 -16 -118 -18 -124 -41 -128 -14 -2
-32 -10 -40 -17 -17 -15 -15 -15 -204 36 l-78 20 3 39 c3 38 5 40 183 157 99
65 186 117 192 114 9 -3 11 -19 7 -50z m178 -15 c76 -48 83 -55 85 -87 2 -34
0 -37 -129 -127 -72 -51 -135 -90 -139 -87 -13 8 -11 42 12 203 15 106 25 148
37 157 19 14 19 14 134 -59z m-4031 -24 c63 -45 65 -62 21 -133 -20 -33 -40
-59 -43 -60 -4 0 -21 50 -38 112 -23 83 -28 114 -19 119 14 9 15 8 79 -38z
m-100 -17 c6 -22 19 -71 29 -108 11 -39 14 -68 9 -68 -19 0 -167 91 -173 106
-6 16 -1 25 48 85 39 49 71 43 87 -15z m2538 10 c119 -26 125 -28 135 -63 6
-17 -8 -39 -69 -108 -102 -113 -108 -113 -191 19 -60 93 -62 98 -48 124 8 15
14 35 14 45 0 13 6 16 23 12 12 -3 73 -16 136 -29z m-736 -42 c9 -3 17 -10 17
-15 0 -5 -53 -35 -117 -65 -65 -30 -134 -63 -153 -73 -34 -17 -36 -17 -54 0
-15 15 -20 37 -23 105 -6 119 -8 118 171 82 77 -15 149 -31 159 -34z m-356 42
c1 -1 3 -42 5 -93 5 -126 1 -128 -157 -80 -116 35 -140 46 -120 54 6 2 60 33
120 68 98 58 129 68 152 51z m-2341 -31 c87 -20 160 -38 162 -40 2 -2 -52 -21
-119 -43 -114 -37 -125 -38 -147 -24 -30 19 -95 118 -87 132 9 15 17 14 191
-25z m5448 -10 l27 -34 -50 -99 c-32 -64 -55 -99 -66 -99 -17 0 -50 39 -110
129 -36 55 -37 59 -21 82 11 18 28 26 63 31 27 4 62 11 78 15 48 13 51 12 79
-25z m-2401 -48 c-132 -140 -152 -158 -169 -149 -9 5 -30 40 -46 77 -26 59
-28 71 -17 91 9 17 21 24 43 24 48 1 171 12 175 16 2 2 13 -3 23 -13 18 -16
18 -17 -9 -46z m997 37 c8 -8 -5 -39 -49 -111 -49 -81 -66 -102 -88 -106 -16
-3 -28 -4 -28 -3 0 1 -42 45 -94 98 -79 81 -92 98 -83 114 9 18 24 19 171 19
103 0 164 -4 171 -11z m1816 -115 c1 -9 5 -26 8 -37 5 -14 -14 -53 -70 -141
-80 -127 -93 -136 -109 -73 -3 15 -28 96 -55 180 l-49 153 27 24 27 23 109
-56 c66 -34 111 -64 112 -73z m-4573 91 c74 -10 97 -16 97 -28 0 -8 9 -29 20
-47 l20 -32 -33 -44 c-29 -39 -36 -44 -71 -43 -37 0 -44 5 -103 80 -36 43 -74
92 -85 108 l-21 28 39 -5 c21 -3 83 -11 137 -17z m2904 -26 c55 -30 62 -37 53
-54 -5 -10 -10 -27 -10 -38 0 -14 -14 -23 -57 -36 -32 -9 -94 -27 -138 -41
-44 -13 -83 -21 -86 -17 -4 4 21 52 55 107 57 93 66 102 115 114 2 1 33 -15
68 -35z m-3003 -85 c48 -61 86 -113 83 -115 -10 -10 -266 78 -271 93 -9 21 66
133 88 133 6 0 51 -50 100 -111z m1930 98 c17 -12 16 -21 -17 -176 -19 -89
-37 -164 -39 -166 -1 -1 -17 -6 -34 -9 -29 -6 -33 -3 -70 51 -63 93 -58 115
45 224 46 49 87 89 91 89 3 0 14 -6 24 -13z m175 -79 c56 -86 58 -93 44 -114
-8 -13 -13 -33 -11 -46 2 -19 -12 -33 -90 -84 -94 -62 -94 -62 -123 -46 -17
10 -27 23 -25 32 3 8 19 85 37 172 33 155 33 156 64 166 16 6 33 10 37 11 5 1
35 -40 67 -91z m-523 72 c15 0 77 -146 69 -160 -5 -8 -32 -10 -89 -6 -98 7
-215 18 -236 22 -8 1 -33 3 -54 3 -22 1 -37 4 -33 7 20 21 295 143 312 139 11
-3 25 -5 31 -5z m2850 -169 c30 -97 57 -182 59 -189 13 -39 -53 -13 -210 80
-63 38 -81 78 -55 130 80 161 78 157 115 156 l35 -1 56 -176z m-5433 157 c2
-7 0 -20 -4 -28 -4 -8 -15 -36 -25 -62 -23 -66 -51 -71 -152 -27 -43 18 -81
36 -86 40 -8 7 211 85 246 88 9 0 18 -5 21 -11z m3587 -83 c49 -49 90 -95 90
-101 0 -18 -21 -20 -225 -19 -189 0 -190 0 -193 22 -2 17 17 46 69 106 73 84
73 84 121 83 46 -1 51 -4 138 -91z m1347 -3 c-16 -71 -26 -96 -41 -104 -12 -6
-27 -20 -34 -30 -7 -10 -17 -16 -21 -14 -4 3 -38 6 -75 7 -55 2 -69 6 -78 22
-8 15 -7 22 3 28 8 4 70 48 138 98 69 50 126 90 127 88 1 -1 -7 -44 -19 -95z
m-4812 -13 c18 -36 42 -81 53 -99 35 -57 21 -62 -80 -27 -73 26 -93 37 -105
61 -13 25 -13 33 0 65 9 20 19 46 22 59 4 13 16 27 28 32 27 10 35 0 82 -91z
m4936 33 c101 -148 104 -140 -55 -156 -31 -3 -43 1 -56 16 -17 22 -17 22 21
171 14 55 37 48 90 -31z m-4525 -142 c3 -107 7 -199 8 -203 0 -5 -6 -14 -15
-20 -16 -10 -46 5 -195 99 -45 29 -51 36 -46 59 4 23 229 271 238 262 2 -1 6
-90 10 -197z m120 154 c52 -30 84 -54 88 -68 4 -15 -15 -56 -61 -136 -37 -63
-74 -127 -82 -142 -28 -48 -38 -34 -40 55 -1 45 -4 139 -7 210 -4 98 -3 127 7
127 7 0 49 -21 95 -46z m1067 -175 c-51 -124 -61 -143 -82 -144 -20 -2 -30 12
-78 109 -40 82 -52 117 -48 136 4 14 8 27 11 29 2 2 50 16 106 30 l102 26 23
-21 24 -22 -58 -143z m275 145 c101 -32 120 -41 137 -68 l21 -31 -31 -175
c-29 -161 -33 -175 -53 -178 -15 -2 -25 4 -31 20 -5 13 -46 100 -91 193 -112
233 -115 240 -98 259 7 8 17 15 21 16 5 0 61 -16 125 -36z m-580 0 c3 -18 -12
-26 -109 -62 -62 -23 -115 -40 -118 -36 -3 3 -1 8 5 12 5 4 20 24 33 45 21 34
26 37 70 37 26 0 56 7 67 15 25 19 48 15 52 -11z m437 -86 c21 -46 70 -148
108 -228 66 -139 68 -145 53 -170 -8 -14 -21 -24 -28 -22 -7 1 -70 26 -140 53
-101 40 -128 55 -128 70 0 29 -1 32 -20 59 -17 25 -17 27 43 173 33 81 63 147
66 147 4 0 25 -37 46 -82z m-2033 30 c96 -39 108 -61 76 -138 -18 -43 -25 -50
-48 -50 -26 0 -31 7 -66 98 -21 53 -42 103 -47 110 -14 18 1 15 85 -20z m6012
-27 c42 -42 46 -50 37 -73 -7 -18 -23 -30 -53 -41 -24 -8 -89 -33 -145 -55
-57 -22 -105 -37 -107 -33 -3 4 17 42 45 85 27 43 56 90 64 106 22 43 39 56
78 57 29 1 42 -7 81 -46z m-4391 3 c-2 -17 -23 -113 -47 -215 -24 -101 -47
-199 -51 -217 -14 -68 -36 -35 -100 153 -56 160 -61 182 -49 201 8 11 12 23 8
26 -3 3 28 18 68 33 40 15 87 34 103 41 49 21 70 14 68 -22z m2630 12 c16 -23
13 -27 -81 -155 -68 -91 -101 -129 -112 -125 -8 3 -21 7 -29 8 -8 2 -31 40
-52 86 -52 116 -49 119 105 169 67 22 128 40 137 40 9 1 24 -10 32 -23z m326
-7 c64 -17 120 -35 125 -40 5 -4 10 -19 12 -33 2 -21 -15 -36 -137 -115 -180
-117 -216 -137 -225 -128 -8 7 -7 204 0 252 1 11 12 22 24 25 24 6 72 46 72
60 0 14 -1 14 129 -21z m-3447 -21 c70 -23 128 -45 128 -49 0 -3 -42 -22 -92
-42 -118 -45 -133 -39 -165 56 -19 60 -20 77 -4 77 3 0 63 -19 133 -42z m-143
-57 c16 -51 17 -62 5 -72 -8 -6 -14 -18 -14 -25 0 -8 -45 -36 -100 -64 -55
-27 -100 -46 -100 -43 0 3 8 17 18 31 10 15 49 80 87 146 75 130 72 129 104
27z m729 -22 c55 -117 59 -129 41 -129 -16 0 -39 -66 -33 -97 5 -26 -2 -35
-70 -93 -121 -103 -130 -95 -90 71 16 63 28 116 29 119 20 96 59 240 64 240 4
0 30 -50 59 -111z m868 97 c10 -2 66 -7 124 -11 58 -4 107 -9 109 -11 2 -2 -9
-8 -25 -14 -16 -6 -42 -17 -59 -25 -16 -7 -73 -32 -124 -54 l-95 -41 -21 20
c-12 11 -31 20 -43 20 -17 0 -27 11 -43 46 -11 26 -17 56 -13 67 6 18 12 19
89 13 45 -4 91 -8 101 -10z m-194 -138 c-17 -20 -19 -75 -3 -91 6 -6 -7 -35
-36 -83 -42 -68 -67 -88 -57 -46 2 9 15 80 29 157 38 211 33 199 59 135 21
-49 22 -57 8 -72z m1930 102 c6 0 9 -46 7 -122 -3 -136 -5 -148 -25 -148 -7 0
-22 -9 -32 -20 -17 -18 -27 -20 -91 -14 -56 5 -74 11 -82 26 -12 22 -15 18 96
167 57 77 95 119 103 116 8 -3 18 -5 24 -5z m-3963 -80 c19 -10 11 -14 -125
-60 l-118 -40 -19 21 c-18 19 -18 23 -3 62 21 54 26 60 56 73 20 9 40 6 110
-18 47 -17 91 -33 99 -38z m2481 64 c0 -3 -23 -60 -50 -127 -49 -120 -51 -122
-91 -135 -38 -12 -42 -11 -82 17 -87 61 -113 88 -101 107 6 10 75 46 155 80
140 60 169 70 169 58z m93 -71 c40 -59 44 -70 32 -83 -8 -9 -18 -34 -23 -55
-8 -38 -9 -40 -81 -62 -56 -18 -77 -21 -87 -12 -8 6 -14 15 -14 20 0 22 105
259 115 259 6 0 32 -30 58 -67z m927 60 c0 0 -35 -20 -77 -44 -43 -23 -106
-57 -141 -76 -59 -32 -65 -34 -81 -19 -10 9 -30 16 -45 16 -21 0 -33 10 -56
47 -17 26 -29 52 -27 58 4 11 427 29 427 18z m1460 -28 c18 -17 21 -27 16 -65
-3 -25 -9 -76 -12 -115 -3 -38 -9 -74 -14 -78 -4 -5 -30 22 -57 60 -138 189
-141 198 -70 207 84 11 92 12 104 11 7 -1 22 -10 33 -20z m-268 -24 c22 -25
24 -39 12 -126 -2 -16 -6 -70 -10 -120 -4 -49 -10 -96 -14 -103 -4 -9 -42 50
-104 162 -86 155 -96 179 -84 194 21 27 22 27 102 22 63 -4 79 -9 98 -29z
m-1167 19 c4 -6 13 -9 22 -8 10 2 27 -24 53 -80 l37 -84 -22 -23 -22 -24 -164
25 c-90 13 -175 27 -189 30 l-25 6 30 24 c17 13 33 24 37 24 4 0 33 15 65 34
78 45 156 86 165 86 4 0 10 -5 13 -10z m-2602 -6 c3 -3 -8 -31 -25 -63 -17
-31 -49 -89 -70 -129 -48 -87 -57 -85 -99 12 -39 91 -30 107 77 152 80 33 106
39 117 28z m2112 -4 c27 0 78 -84 69 -113 -4 -12 -11 -25 -17 -29 -6 -3 -60
-7 -121 -8 -61 0 -118 -1 -126 -2 -39 -3 -51 3 -48 22 4 27 176 140 203 135
11 -3 29 -5 40 -5z m2135 -57 c66 -38 120 -73 120 -79 0 -14 -297 -137 -310
-129 -5 3 -7 11 -5 18 2 7 6 44 9 83 13 151 19 173 53 174 7 0 67 -30 133 -67z
m-4156 -35 c16 -46 43 -126 61 -178 l32 -95 -25 -24 -26 -24 -111 36 c-110 37
-110 37 -122 77 -11 34 -11 44 5 72 11 18 38 69 62 113 53 98 58 105 79 105
12 0 25 -24 45 -82z m3376 72 c11 -6 17 -19 15 -32 -5 -41 -19 -143 -21 -150
-1 -5 -2 -15 -3 -23 0 -8 -8 -15 -16 -15 -9 0 -18 -7 -22 -16 -5 -14 -21 -15
-127 -9 -67 4 -132 9 -146 10 -14 2 -31 4 -37 4 -27 2 -10 20 65 69 200 129
267 172 270 172 2 0 12 -4 22 -10z m1328 2 c10 -7 4 -45 -30 -181 -55 -221
-49 -219 -189 -76 -62 63 -104 115 -104 127 0 16 27 30 150 78 169 66 156 62
173 52z m-1223 -73 c19 -33 35 -62 35 -64 0 -2 15 -30 33 -62 76 -132 96 -172
89 -177 -4 -3 -46 13 -93 36 -46 22 -94 44 -106 49 -13 5 -20 14 -17 22 2 7
-5 22 -16 32 -15 14 -19 26 -15 49 7 45 13 83 21 133 4 26 12 43 20 43 7 0 29
-27 49 -61z m348 -58 c58 -80 84 -125 80 -138 -6 -22 -187 -115 -208 -106 -10
3 -13 15 -11 32 3 14 7 66 11 115 4 50 9 98 11 109 2 10 4 38 5 63 2 25 8 44
14 44 6 0 50 -54 98 -119z m-4801 97 c8 -7 23 -49 32 -92 l17 -79 -33 -28
c-18 -16 -35 -28 -38 -29 -3 0 -64 24 -135 53 -114 46 -130 55 -127 73 3 18
26 30 130 67 149 53 134 50 154 35z m169 -71 c137 -82 144 -97 62 -133 l-52
-24 -27 25 c-23 21 -47 30 -75 27 -6 -1 -39 137 -39 164 0 20 -5 22 131 -59z
m456 10 c6 0 25 -30 41 -67 l30 -67 -29 -27 -29 -27 -97 30 c-54 16 -111 33
-126 37 -19 4 -27 12 -25 23 4 20 187 112 208 104 8 -3 20 -6 27 -6z m1540
-67 c36 -27 70 -50 74 -50 11 0 11 -21 0 -38 -4 -7 -70 -26 -145 -41 l-137
-29 -14 21 c-20 29 -21 27 26 101 34 54 46 66 68 66 14 0 33 5 41 10 8 5 16
10 18 10 2 0 33 -22 69 -50z m928 -85 c-10 -115 -30 -165 -60 -147 -5 3 -74
48 -152 100 -110 72 -140 97 -136 110 4 10 10 19 14 22 5 3 68 7 141 9 73 1
134 4 137 6 2 3 17 -6 32 -18 28 -21 29 -25 24 -82z m155 80 c94 -12 126 -17
150 -21 14 -2 54 -9 90 -15 35 -5 66 -12 69 -14 4 -5 -12 -12 -129 -59 -73
-29 -88 -32 -110 -22 -14 7 -32 11 -40 9 -9 -1 -35 23 -63 58 -44 57 -53 83
-24 74 7 -2 32 -6 57 -10z m2019 6 c12 -8 13 -23 1 -108 -12 -95 -14 -98 -45
-114 -32 -15 -34 -14 -146 41 -63 31 -113 60 -112 65 1 7 267 124 283 125 3 0
11 -4 19 -9z m271 -223 c0 -10 -3 -19 -7 -19 -18 -3 -52 -7 -124 -14 -74 -7
-77 -6 -104 21 l-27 27 12 94 c18 135 22 135 147 10 56 -56 102 -110 103 -119z
m-5693 150 c128 -51 131 -53 131 -83 0 -34 3 -32 -117 -81 -89 -35 -98 -30
-149 93 -37 89 -40 99 -25 111 9 6 19 12 22 12 3 0 65 -23 138 -52z m3356 -8
c27 -34 47 -69 47 -83 0 -20 -9 -29 -47 -45 -105 -44 -114 -42 -102 23 5 25
11 67 15 93 6 45 19 73 33 71 3 0 27 -27 54 -59z m-593 -10 c9 0 11 -15 7 -52
-4 -29 -9 -78 -12 -108 -8 -70 -11 -80 -27 -80 -8 0 -55 42 -106 93 -87 87
-92 95 -86 125 6 30 12 34 83 55 l76 24 27 -29 c14 -15 31 -28 38 -28z m-2095
-15 c164 -49 171 -64 63 -140 -40 -27 -100 -70 -134 -94 -43 -30 -68 -41 -82
-37 -18 6 -19 15 -18 145 2 139 11 175 39 166 7 -2 66 -20 132 -40z m1120 -9
c128 -53 130 -54 133 -87 2 -33 -1 -36 -77 -81 -77 -45 -81 -46 -117 -33 -36
12 -40 18 -80 116 -38 95 -40 106 -26 122 8 9 20 17 26 17 6 -1 70 -25 141
-54z m1259 -51 c79 -52 136 -97 136 -106 0 -9 -6 -16 -12 -16 -11 0 -63 -11
-183 -38 -156 -35 -182 -38 -201 -21 -19 16 -19 22 -7 109 6 51 12 102 12 114
1 16 9 25 29 29 15 4 36 13 46 20 11 7 25 10 31 6 7 -4 74 -47 149 -97z
m-2578 83 c5 -7 9 -47 8 -88 -1 -41 -3 -103 -3 -137 -1 -47 -5 -63 -15 -63 -8
0 -42 30 -76 68 -46 51 -59 72 -54 87 3 11 9 37 11 59 5 35 10 40 57 61 61 28
61 28 72 13z m3532 2 c6 0 12 -8 12 -18 0 -24 -250 -174 -267 -160 -18 14 -16
32 7 87 16 36 29 50 54 59 19 7 37 20 40 28 5 13 18 15 74 10 37 -3 73 -6 80
-6z m-2444 -19 c26 -6 34 -18 72 -111 41 -99 43 -106 26 -122 -16 -16 -25 -15
-156 12 -76 16 -139 30 -141 32 -1 2 -7 17 -13 35 -10 30 -9 33 31 67 23 19
60 51 82 70 24 22 46 33 55 30 8 -4 28 -9 44 -13z m2175 -69 c-21 -52 -22 -52
-59 -46 -25 4 -47 1 -68 -10 -17 -9 -35 -16 -39 -16 -12 1 -62 47 -65 60 -2 6
47 30 107 54 103 41 111 42 128 27 17 -16 17 -19 -4 -69z m566 63 c22 -2 60
-4 85 -5 73 -1 79 -12 29 -58 -130 -119 -134 -120 -169 -83 -72 76 -118 136
-113 147 5 13 25 13 168 -1z m-1874 -43 c25 -26 25 -29 15 -101 -10 -70 -13
-75 -41 -84 -16 -5 -38 -17 -48 -25 -20 -18 -19 -19 -163 74 -73 47 -81 55
-77 78 6 29 0 27 159 61 137 29 125 29 155 -3z m1623 12 c13 -5 16 -24 16
-105 0 -93 -1 -99 -27 -125 l-27 -27 -121 18 -122 17 1 36 c1 35 4 38 131 114
72 43 131 78 132 78 1 0 8 -3 17 -6z m142 -87 c24 -26 44 -56 44 -67 0 -11
-19 -29 -52 -48 -48 -27 -55 -28 -75 -15 -20 13 -22 23 -22 111 -1 105 9 126
42 89 10 -12 39 -44 63 -70z m458 33 c77 -36 106 -54 106 -67 -1 -11 -47 -52
-120 -106 -111 -82 -120 -86 -145 -75 -21 9 -25 17 -21 37 9 42 16 82 28 161
9 62 23 94 44 100 1 0 49 -22 108 -50z m335 -63 c-33 -59 -67 -107 -74 -107
-8 0 -26 16 -40 35 -20 26 -25 41 -21 63 6 23 22 35 99 74 51 25 93 45 94 44
2 -2 -24 -51 -58 -109z m312 20 c38 -18 46 -27 47 -51 0 -15 7 -35 15 -45 12
-14 11 -23 -10 -68 -13 -29 -30 -53 -36 -53 -9 0 -140 194 -200 296 -4 8 25
-3 65 -22 40 -20 94 -46 119 -57z m-2594 -137 c-3 -11 3 -30 14 -44 14 -18 18
-36 15 -68 -2 -24 -8 -77 -12 -118 -4 -41 -7 -81 -6 -87 2 -8 -8 -13 -22 -13
-23 0 -27 8 -47 73 -12 39 -48 160 -80 266 -33 107 -59 200 -59 205 0 6 46
-35 101 -91 78 -79 100 -107 96 -123z m1768 93 c-9 -59 -18 -115 -20 -123 -1
-12 -63 -37 -70 -28 -32 43 -85 118 -85 121 0 3 39 39 86 82 59 53 90 73 97
66 7 -7 5 -44 -8 -118z m679 24 c33 -50 75 -116 94 -145 31 -48 33 -56 21 -78
-7 -13 -21 -24 -31 -24 -24 0 -23 0 -60 -11 -61 -18 -93 -19 -112 -4 -19 14
-18 51 9 260 2 17 4 45 4 63 1 17 4 32 9 32 4 0 34 -42 66 -93z m-2618 -73
c75 -247 105 -348 110 -366 12 -43 -26 -10 -82 71 -60 87 -61 88 -42 110 38
48 11 149 -44 166 -19 7 -20 12 -14 69 4 33 8 70 11 81 2 11 4 22 4 24 3 15
17 -24 57 -155z m-1468 106 c143 -47 137 -65 -28 -96 -32 -6 -72 22 -95 67
-18 35 -21 49 -12 58 6 6 16 10 22 8 5 -2 56 -19 113 -37z m3988 -12 c-3 -29
-8 -80 -12 -112 -3 -33 -8 -67 -9 -75 -2 -9 -4 -31 -4 -48 -1 -20 -6 -33 -14
-33 -20 0 -75 81 -72 107 1 20 104 213 114 213 2 0 1 -24 -3 -52z m-4880 -5
l29 -26 -14 -62 c-12 -51 -19 -64 -40 -72 -23 -8 -36 -3 -106 43 -44 29 -81
57 -83 62 -2 8 148 79 174 81 6 1 25 -11 40 -26z m664 21 c0 -14 -63 -154 -69
-154 -5 0 -18 -9 -31 -20 -13 -11 -37 -21 -54 -21 -89 -5 -121 -3 -124 5 -2 4
54 50 125 101 116 84 153 106 153 89z m2593 -1 c3 -5 -6 -51 -19 -103 -13 -52
-26 -108 -29 -124 -13 -66 -21 -62 -68 35 -59 122 -57 138 26 172 68 27 84 31
90 20z m100 -18 c25 -22 27 -28 18 -59 -5 -19 -8 -36 -6 -38 1 -2 5 -15 9 -30
5 -24 -1 -32 -73 -87 -43 -33 -81 -58 -83 -55 -3 2 10 66 28 140 38 162 51
178 107 129z m-2604 -28 c34 -63 28 -76 -53 -104 -38 -12 -72 -21 -74 -18 -3
2 10 40 28 85 39 97 61 106 99 37z m-552 -56 c47 -52 60 -73 56 -90 -3 -11
-10 -21 -17 -22 -6 0 -52 -3 -101 -5 l-90 -4 -13 28 c-10 23 -10 40 1 88 12
53 17 60 43 65 54 12 60 9 121 -60z m1585 57 c15 -12 10 -30 -53 -184 -43
-103 -76 -171 -84 -171 -8 0 -26 36 -44 88 -36 103 -35 96 -16 115 8 9 15 27
15 42 0 23 12 34 78 74 89 54 83 52 104 36z m236 -50 c41 -26 77 -48 81 -48
21 0 39 -38 38 -78 l-2 -44 -214 -85 c-186 -74 -215 -83 -228 -71 -12 13 -10
25 17 94 18 43 38 93 45 109 8 17 25 57 37 90 22 54 27 60 57 62 18 2 42 9 53
18 12 8 26 11 32 8 6 -4 44 -28 84 -55z m3490 37 c-7 -7 -49 -32 -93 -55 -44
-24 -116 -63 -159 -87 -44 -24 -81 -41 -83 -40 -2 2 7 27 19 55 20 44 27 52
50 52 27 0 72 36 63 51 -7 11 18 17 105 24 41 4 76 8 78 9 1 2 9 3 17 3 13 0
14 -3 3 -12z m-831 -63 c21 -25 29 -41 23 -51 -8 -15 -325 -113 -335 -103 -15
16 5 37 111 116 132 98 146 100 201 38z m-3664 7 c17 -19 17 -22 -15 -80 -42
-76 -62 -78 -117 -8 -23 29 -41 57 -41 64 0 6 28 19 63 27 84 21 90 21 110 -3z
m307 -9 c77 -16 143 -30 145 -30 3 0 5 -7 5 -15 0 -8 -34 -35 -76 -59 -67 -39
-78 -43 -91 -30 -17 17 -58 28 -71 20 -10 -6 -82 93 -82 111 0 8 20 33 27 33
1 0 66 -13 143 -30z m1615 -25 c-51 -47 -65 -54 -92 -51 -18 2 -40 -2 -50 -9
-14 -10 -28 -9 -77 8 -64 20 -91 36 -66 38 21 1 60 8 100 19 19 5 50 12 69 15
19 3 37 8 41 10 3 2 29 7 56 11 27 3 51 8 53 10 2 2 9 4 15 4 6 0 -16 -25 -49
-55z m177 -40 c34 -66 44 -94 37 -107 -5 -9 -9 -25 -9 -35 0 -12 -34 -41 -97
-83 -97 -64 -98 -65 -130 -51 -29 13 -34 22 -49 87 -16 67 -16 73 -1 89 10 9
17 27 17 39 0 33 139 159 169 154 9 -2 37 -43 63 -93z m1036 22 c39 -53 39
-53 21 -76 -21 -25 -18 -26 -123 12 -83 30 -98 49 -59 73 16 10 37 23 48 30
42 27 70 17 113 -39z m-3083 -19 c-2 -23 -7 -91 -10 -152 -4 -61 -8 -112 -10
-114 -1 -2 -14 17 -27 40 -35 63 -32 155 6 221 15 26 32 47 36 47 4 0 7 -19 5
-42z m99 -10 c34 -49 34 -52 20 -80 -11 -22 -13 -37 -6 -58 9 -25 6 -32 -43
-80 -34 -33 -55 -48 -60 -41 -3 7 -4 53 0 104 4 51 8 113 9 138 6 86 30 92 80
17z m2588 11 c112 -15 116 -26 41 -93 -31 -28 -80 -72 -107 -98 -51 -48 -70
-56 -81 -38 -3 6 -14 10 -24 10 -14 0 -21 18 -35 91 l-17 91 28 30 c31 32 22
31 195 7z m-342 -20 c0 -16 -160 -303 -173 -311 -17 -10 -24 9 -30 84 -5 51
-3 69 8 78 8 7 15 20 15 29 1 17 160 141 173 134 4 -2 7 -9 7 -14z m-705 -14
c29 -9 59 -22 65 -30 7 -8 9 -15 5 -15 -4 0 -2 -7 5 -15 12 -15 3 -32 -40 -75
-3 -3 -36 -40 -74 -83 -65 -73 -70 -77 -90 -63 -12 8 -20 18 -20 23 1 4 4 40
8 78 15 170 17 181 40 192 11 6 27 9 34 7 7 -2 37 -11 67 -19z m-1178 -2 c11
-3 24 -12 27 -21 3 -10 16 -50 30 -91 35 -102 29 -107 -82 -66 -161 61 -181
72 -176 93 7 24 144 104 164 95 8 -3 25 -8 37 -10z m3122 -32 c-30 -28 -61
-48 -71 -46 -9 2 -22 -3 -29 -11 -15 -19 -169 -20 -169 -1 0 7 63 30 158 58
86 26 159 47 161 48 2 0 -20 -21 -50 -48z m136 -12 c17 -24 25 -43 19 -49 -9
-9 -71 -13 -154 -10 l-45 1 64 59 c71 65 71 65 116 -1z m-1301 41 c21 0 25 -8
40 -85 l17 -85 -28 -29 c-16 -15 -29 -38 -30 -51 -1 -12 -4 -24 -7 -27 -4 -4
-184 -52 -197 -53 -23 0 -12 40 30 112 26 46 65 116 86 156 26 48 44 71 53 67
8 -3 24 -5 36 -5z m569 -31 l85 -31 0 -39 c1 -37 -2 -40 -46 -59 -44 -20 -48
-20 -78 -4 -46 25 -92 164 -54 164 4 0 46 -14 93 -31z m-148 1 c7 0 23 -27 35
-61 20 -51 21 -64 10 -84 -7 -13 -10 -30 -7 -38 6 -17 -106 -121 -132 -123 -9
-1 -21 -3 -26 -5 -6 -2 -39 8 -75 24 -61 25 -65 29 -67 62 -2 31 6 41 85 114
128 117 135 122 150 116 7 -3 19 -5 27 -5z m-1741 -52 c20 -23 21 -19 -74
-193 -13 -23 -25 -31 -52 -33 -22 -2 -46 -13 -62 -28 l-25 -25 -120 52 c-67
29 -121 57 -121 64 0 8 396 178 430 184 3 1 14 -9 24 -21z m2930 -30 c-5 -12
-31 -65 -58 -116 -62 -119 -77 -120 -122 -12 -43 104 -35 118 83 146 49 11 92
18 97 13 4 -4 4 -18 0 -31z m-2248 -52 c17 -73 17 -73 -5 -95 -11 -11 -21 -27
-21 -34 0 -15 -168 -44 -194 -34 -23 9 -20 17 17 57 17 19 63 70 101 112 37
43 72 76 76 73 5 -3 16 -38 26 -79z m-475 -34 l60 -84 -22 -44 c-11 -25 -19
-54 -16 -64 5 -19 1 -20 -81 -14 -48 3 -108 7 -134 8 -45 2 -49 4 -68 40 l-19
39 55 101 55 101 55 1 56 0 59 -84z m2173 70 c5 -9 -134 -205 -154 -217 -22
-14 -48 16 -62 74 l-15 60 28 27 c16 15 29 36 29 46 0 16 10 18 84 18 47 0 87
-4 90 -8z m253 -9 c8 -19 -169 -194 -185 -184 -20 12 -29 165 -12 186 16 19
190 18 197 -2z m-3333 -46 c98 -38 111 -46 117 -72 8 -28 29 -47 58 -51 7 -2
17 -6 21 -11 11 -10 81 -185 77 -190 -3 -3 -65 51 -247 216 -156 142 -177 163
-155 157 11 -3 69 -25 129 -49z m1711 33 c3 -5 9 -39 12 -75 5 -62 4 -67 -22
-91 l-28 -26 -89 17 c-119 23 -118 35 9 120 103 68 108 71 118 55z m-1899 -10
c28 11 24 14 306 -243 48 -43 95 -85 105 -93 19 -15 -16 -3 -364 124 -167 61
-213 81 -217 97 -4 15 8 34 46 72 44 45 54 50 74 42 15 -5 34 -5 50 1z m2884
-10 c0 -17 51 -44 93 -50 38 -5 41 -8 54 -54 15 -51 12 -73 -11 -82 -13 -5
-256 132 -256 145 0 6 97 49 113 50 4 1 7 -3 7 -9z m412 -69 c4 -63 2 -77 -14
-93 -10 -10 -16 -23 -13 -28 4 -6 -2 -10 -12 -11 -10 0 -29 -2 -43 -5 -66 -11
-79 -11 -83 -1 -2 7 8 28 23 47 88 115 133 171 135 168 2 -2 5 -36 7 -77z
m321 -10 c28 -66 28 -73 13 -90 -9 -9 -16 -26 -16 -37 0 -16 -13 -23 -75 -39
-41 -10 -77 -16 -79 -14 -3 3 12 45 33 94 22 50 46 107 55 128 9 22 21 37 28
35 7 -3 25 -37 41 -77z m-85 61 c-1 -4 -23 -57 -48 -116 -25 -59 -52 -112 -61
-117 -22 -11 -75 42 -63 64 14 24 158 176 167 177 5 0 7 -4 5 -8z m-796 -149
c22 -101 22 -110 -2 -123 -17 -9 -32 -3 -91 31 -39 23 -74 49 -77 58 -8 22
116 133 137 121 9 -5 23 -41 33 -87z m152 21 c99 -58 113 -70 113 -93 0 -24
-8 -30 -60 -51 -47 -18 -64 -20 -76 -11 -18 12 -48 27 -72 34 -10 3 -21 33
-33 87 -9 45 -20 89 -23 98 -10 26 29 9 151 -64z m-2337 -15 c100 -42 122 -55
126 -75 2 -14 -2 -29 -12 -37 -33 -29 -131 -86 -131 -77 0 5 -11 12 -24 16
-19 5 -32 25 -66 105 -37 90 -42 119 -22 119 4 0 62 -23 129 -51z m1678 13
l23 -18 -54 -112 c-53 -109 -55 -112 -87 -112 -28 0 -37 8 -75 65 -42 63 -43
66 -31 105 10 34 18 42 48 49 20 6 61 16 91 25 30 8 57 15 58 15 2 1 14 -7 27
-17z m-1970 -154 c77 -27 147 -54 155 -59 9 -5 -39 -9 -120 -9 -74 -1 -181 -3
-237 -4 l-102 -3 -23 36 c-16 24 -32 37 -51 39 -15 2 -27 5 -27 6 0 2 -11 33
-24 69 -15 41 -20 69 -14 75 6 6 64 -11 156 -45 81 -30 210 -77 287 -105z
m2169 133 c34 -15 66 -36 69 -45 9 -24 -35 -130 -56 -134 -25 -5 -116 186 -96
199 18 11 10 13 83 -20z m-863 -14 c8 -19 6 -34 -14 -78 -13 -30 -30 -69 -37
-86 -17 -45 -41 -42 -111 15 -53 42 -58 50 -53 77 3 17 6 38 8 47 3 24 5 25
61 33 27 3 51 7 52 9 1 1 21 3 43 4 34 2 42 -1 51 -21z m211 7 c117 -23 120
-37 21 -97 -42 -25 -80 -44 -87 -41 -6 2 -21 29 -33 59 -19 46 -21 59 -11 75
15 24 4 24 110 4z m582 -86 c57 -121 54 -129 -58 -153 -44 -9 -88 -18 -97 -21
-9 -2 -21 5 -28 19 -11 20 -6 36 43 135 72 145 81 147 140 20z m-701 5 c16
-39 22 -64 16 -74 -10 -20 -131 -70 -142 -59 -8 7 46 150 66 178 18 24 35 11
60 -45z m1604 -5 c-13 -24 -39 -69 -57 -100 -38 -69 -55 -67 -83 8 -15 42 -16
49 -2 64 8 9 15 22 15 28 0 20 53 38 123 41 l29 1 -25 -42z m-630 -14 c48 -30
73 -52 73 -64 0 -10 -4 -21 -8 -24 -4 -2 -56 -8 -115 -12 -123 -8 -122 -9 -83
79 21 47 34 62 55 66 2 1 37 -20 78 -45z m744 19 c45 -51 51 -62 55 -115 7
-80 -4 -88 -119 -92 -92 -3 -95 -3 -106 20 -9 20 -3 36 42 113 63 109 85 121
128 74z m-2347 3 c88 -5 101 -9 115 -29 9 -12 16 -25 16 -30 0 -4 -40 -54 -89
-112 -78 -93 -91 -103 -108 -94 -11 6 -29 9 -40 6 -20 -6 -22 -1 -92 156 -25
57 -25 58 -6 77 11 11 20 24 20 29 0 5 19 7 43 6 23 -2 87 -6 141 -9z m869 -2
c3 -3 -4 -33 -16 -66 -18 -49 -26 -60 -49 -65 -54 -11 -81 -79 -45 -115 11
-11 9 -23 -14 -71 -32 -69 -35 -64 -45 78 -3 55 -6 102 -7 105 -3 29 23 60 81
97 67 42 84 48 95 37z m1727 -6 c-1 -7 -35 -49 -76 -93 -80 -84 -93 -87 -95
-20 0 17 -2 37 -4 46 -4 23 18 48 51 53 16 3 43 10 59 15 43 13 65 13 65 -1z
m-1604 -77 c39 -59 44 -72 34 -90 -9 -18 -20 -21 -74 -21 -57 0 -64 2 -76 25
-7 14 -17 25 -21 25 -7 0 1 30 30 103 8 19 17 27 36 27 20 0 34 -14 71 -69z
m-1311 30 c-3 -9 -31 -80 -62 -159 -65 -162 -67 -163 -103 -38 -28 98 -23 110
75 176 68 46 102 54 90 21z m2320 9 c3 -5 17 -10 30 -10 19 0 27 -9 43 -52 19
-52 19 -52 -1 -68 -19 -16 -26 -15 -115 12 -53 15 -97 28 -99 28 -1 0 -3 12
-3 28 0 23 7 30 53 49 59 24 83 27 92 13z m-1636 -51 c34 -28 61 -55 61 -59 0
-15 -20 -23 -231 -96 -185 -64 -207 -69 -217 -54 -8 13 7 37 83 126 l94 109
45 -3 c30 -3 53 2 68 12 12 9 26 16 29 16 4 0 35 -23 68 -51z m-558 -66 c44
-101 46 -106 29 -123 -10 -10 -21 -31 -25 -48 -6 -29 -9 -30 -88 -42 -45 -6
-90 -14 -99 -16 -10 -3 -21 3 -28 16 -10 18 -3 43 41 153 68 172 65 167 97
167 25 -1 31 -10 73 -107z m864 10 c2 -15 6 -64 10 -108 3 -44 9 -88 12 -98
10 -35 -21 -13 -105 75 -71 73 -82 89 -74 105 13 22 133 74 146 62 5 -4 10
-20 11 -36z m-1254 11 c6 -3 -24 -22 -67 -41 -70 -31 -80 -33 -108 -21 -35 15
-54 12 -78 -9 -15 -13 -27 -11 -117 23 -55 21 -96 41 -91 44 13 8 448 12 461
4z m2264 -16 c0 -10 -28 -49 -62 -87 l-63 -69 -36 13 c-36 12 -43 22 -74 101
-14 35 5 49 72 54 117 11 163 7 163 -12z m249 -19 c114 -32 123 -37 122 -64
-1 -32 -133 -125 -162 -115 -12 4 -30 36 -50 86 -29 72 -31 80 -17 97 20 21
21 21 107 -4z m-2458 -3 c3 -3 42 -133 48 -159 4 -19 2 -29 -7 -33 -22 -8
-235 87 -240 108 -6 21 -3 23 88 64 56 25 100 33 111 20z m1892 7 c-16 -36
-58 -84 -81 -92 -22 -8 -37 -6 -72 11 -49 24 -58 45 -22 53 12 3 49 11 82 19
71 16 98 19 93 9z m80 -76 c21 -50 22 -52 4 -70 -18 -18 -20 -17 -76 7 -62 28
-62 26 -14 88 37 47 58 41 86 -25z m343 44 c3 -3 17 -33 30 -66 12 -33 26 -64
31 -69 4 -5 2 -18 -3 -28 -8 -16 -18 -18 -52 -14 -23 3 -80 8 -127 11 -76 5
-105 16 -97 36 1 4 31 38 67 77 64 70 66 71 105 65 22 -3 43 -8 46 -12z m-771
-24 c0 -8 8 -21 19 -31 18 -16 17 -19 -13 -102 -41 -111 -53 -110 -117 10 -45
84 -47 90 -32 113 13 20 23 23 79 23 47 0 64 -4 64 -13z m1370 -3 c0 -3 -65
-24 -255 -80 -88 -26 -167 -49 -175 -52 -8 -2 14 16 50 40 54 38 69 44 87 35
31 -14 72 -1 85 28 7 16 20 25 42 27 42 4 166 6 166 2z m-1176 -45 c26 -11 49
-26 52 -33 6 -15 -44 -146 -56 -146 -12 0 -73 177 -65 189 9 15 16 14 69 -10z
m-321 -90 c56 -105 54 -120 -15 -100 -70 20 -129 44 -123 49 3 3 0 11 -5 18
-8 8 -3 28 17 68 22 46 32 56 53 56 21 0 32 -13 73 -91z m257 -6 c40 -107 37
-117 -47 -121 -54 -3 -60 -1 -72 22 -12 22 -10 34 15 105 24 67 32 81 50 81
18 0 27 -15 54 -87z m225 38 c79 -30 73 -50 -27 -94 -78 -35 -108 -44 -108
-32 0 16 52 130 63 137 16 10 15 11 72 -11z m95 -99 c19 -10 36 -23 37 -28 7
-39 23 -169 23 -185 0 -10 -5 -19 -11 -19 -23 0 -259 145 -259 160 0 9 33 30
83 52 45 21 84 38 87 38 3 0 21 -8 40 -18z m-293 -102 c14 -11 29 -17 34 -14
8 4 56 -64 88 -124 12 -23 12 -23 -11 -9 -13 8 -74 45 -137 82 -120 72 -126
85 -43 85 29 0 53 -7 69 -20z m176 -64 c161 -92 170 -100 120 -104 -16 -1 -37
-4 -48 -6 -11 -2 -31 5 -44 15 -13 11 -32 19 -41 19 -11 0 -32 26 -58 70 -22
39 -38 69 -34 66 4 -2 51 -29 105 -60z m171 -171 c-4 -16 -13 -43 -21 -59
l-15 -29 -51 51 c-57 57 -55 78 9 80 20 1 39 4 41 6 3 3 14 -1 24 -7 15 -9 18
-19 13 -42z m90 -45 c45 -68 54 -86 39 -77 -5 3 -32 8 -62 11 -68 8 -74 12
-66 44 8 33 33 92 38 92 2 0 25 -31 51 -70z m34 -93 c18 0 15 -9 -20 -55 -49
-64 -71 -54 -103 47 -7 22 -5 22 52 15 32 -4 64 -7 71 -7z"/>
</g>
</svg>
